<svg width="52" height="67" viewBox="0 0 52 67" fill="none" xmlns="http://www.w3.org/2000/svg">
<path d="M38.9018 46.0689L30.2835 40.6485C29.0459 39.8703 27.8742 38.5063 27.0687 36.906C26.4545 35.6858 26.1163 34.4344 26.1163 33.3816V22.0704L38.9018 16.2966L39.5085 16.5713L37.3797 15.5503L24.5942 21.6664V33.6457C24.5942 34.7609 24.9324 36.0862 25.5466 37.3786C26.3521 39.0735 27.5238 40.5186 28.7614 41.3424L37.3797 47.0832L38.9018 46.0694V46.0689Z" fill="#1CABD8"/>
<path d="M8.76686 66.6849H30.1946C32.325 66.6825 34.3675 65.8354 35.8739 64.3295C37.3803 62.8235 38.2277 60.7817 38.2301 58.652V47.7542H36.4444V50.619H2.51709V10.8113H36.4444V14.7534H38.2301V8.66918C38.2277 6.53945 37.3803 4.49763 35.8739 2.99168C34.3675 1.48573 32.325 0.638632 30.1946 0.63623H8.76686C6.63648 0.638632 4.59403 1.48573 3.08762 2.99168C1.58121 4.49763 0.733848 6.53945 0.731445 8.66918V58.652C0.733848 60.7817 1.58121 62.8235 3.08762 64.3295C4.59403 65.8354 6.63648 66.6825 8.76686 66.6849ZM8.76686 2.42133H30.1946C31.8516 2.42318 33.4402 3.08203 34.6119 4.25333C35.7835 5.42462 36.4426 7.01271 36.4444 8.66918V9.0262H2.51709V8.66918C2.51894 7.01271 3.17799 5.42462 4.34965 4.25333C5.52131 3.08203 7.10989 2.42318 8.76686 2.42133ZM2.51709 52.4041H36.4444V58.652C36.4426 60.3084 35.7835 61.8965 34.6119 63.0678C33.4402 64.2391 31.8516 64.898 30.1946 64.8998H8.76686C7.10989 64.898 5.52131 64.2391 4.34965 63.0678C3.17799 61.8965 2.51894 60.3084 2.51709 58.652V52.4041Z" fill="#04537B"/>
<path d="M16.1259 59.4408H22.835C23.0755 59.4408 23.3061 59.351 23.4761 59.1912C23.6461 59.0314 23.7416 58.8146 23.7416 58.5886C23.7416 58.3625 23.6461 58.1458 23.4761 57.9859C23.3061 57.8261 23.0755 57.7363 22.835 57.7363H16.1259C15.8854 57.7363 15.6548 57.8261 15.4848 57.9859C15.3148 58.1458 15.2192 58.3625 15.2192 58.5886C15.2192 58.8146 15.3148 59.0314 15.4848 59.1912C15.6548 59.351 15.8854 59.4408 16.1259 59.4408Z" fill="#04537B"/>
<path d="M27.866 42.7079L36.7915 48.7892C36.9396 48.8901 37.1147 48.944 37.294 48.944C37.4732 48.944 37.6483 48.8901 37.7965 48.7892L46.722 42.7081C49.4432 40.8545 51.5748 36.8269 51.5748 33.5387V21.025C51.5748 20.8581 51.528 20.6946 51.4397 20.5529C51.3515 20.4113 51.2252 20.2972 51.0754 20.2237L37.6872 13.6545C37.5649 13.5946 37.4306 13.5635 37.2944 13.5635C37.1583 13.5635 37.024 13.5946 36.9017 13.6545L23.5135 20.2051C23.3634 20.2785 23.2369 20.3926 23.1485 20.5343C23.06 20.6761 23.0132 20.8398 23.0132 21.0069V33.5392C23.0132 34.9283 23.3925 36.4787 24.1101 38.0229C25.0293 40.0004 26.3979 41.7083 27.866 42.7079ZM24.7983 21.5634L37.294 15.4494L49.7897 21.5808V33.5383C49.7897 36.2052 47.9247 39.7286 45.717 41.2322L37.294 46.971L28.871 41.2322C27.6614 40.4084 26.5163 38.9641 25.7291 37.2699C25.1288 35.9782 24.7983 34.6531 24.7983 33.5383V21.5634Z" fill="#13C6FF"/>
<path d="M35.3347 34.8206C35.5014 34.9832 35.725 35.0742 35.9579 35.0742C36.1908 35.0742 36.4144 34.9832 36.5811 34.8206L42.5868 28.9632C42.6707 28.8814 42.7377 28.7838 42.7839 28.6761C42.8301 28.5684 42.8546 28.4526 42.8561 28.3354C42.8576 28.2182 42.8359 28.1018 42.7924 27.993C42.7489 27.8841 42.6844 27.7849 42.6026 27.701C42.5207 27.6171 42.4232 27.5501 42.3154 27.5039C42.2077 27.4577 42.0919 27.4332 41.9747 27.4317C41.8575 27.4302 41.7412 27.4519 41.6323 27.4954C41.5235 27.5389 41.4243 27.6034 41.3403 27.6852L35.958 32.9348L33.2477 30.2915C33.0783 30.1262 32.8501 30.035 32.6134 30.038C32.3767 30.0409 32.1508 30.1378 31.9855 30.3073C31.8202 30.4767 31.729 30.7049 31.732 30.9416C31.735 31.1783 31.8318 31.4042 32.0013 31.5695L35.3347 34.8206Z" fill="#13C6FF"/>
</svg>
