<svg width="136" height="92" viewBox="0 0 136 92" fill="none" xmlns="http://www.w3.org/2000/svg">
<path d="M134.753 26.3367L109.845 1.27273C108.849 0.270171 107.105 0.270171 106.109 1.27273C105.113 2.27529 105.113 3.77912 106.109 5.03232L129.273 28.3418L115.823 41.8763C115.325 42.3776 114.827 42.3776 114.328 41.8763L87.428 15.0579C86.9299 14.5566 86.9299 14.0553 87.428 13.5541L96.3948 4.53104C97.3911 3.52848 97.3911 1.77401 96.3948 0.77145C95.3985 -0.231108 93.655 -0.231108 92.6587 0.77145L83.6919 9.79447C81.6993 11.7996 81.4502 14.5566 82.4465 16.8124L79.4576 19.82H57.7878L53.8026 15.8098C54.0517 15.3085 54.0517 14.8073 54.0517 14.0553C54.0517 12.3009 53.3044 10.797 52.3081 9.54383L43.5904 0.77145C42.5941 -0.231108 40.8506 -0.231108 39.8542 0.77145C38.8579 1.77401 38.8579 3.52848 39.8542 4.53104L48.572 13.3034C48.821 13.5541 48.821 13.8047 48.821 14.0553C48.821 14.306 48.821 14.5566 48.572 14.8073L47.8247 15.5592L21.9207 41.8763C21.6716 42.127 21.4225 42.1269 21.1734 42.1269C20.9244 42.1269 20.6753 42.127 20.4262 41.8763L6.97601 28.3418L30.3893 4.53104C31.3856 3.52848 31.3856 1.77401 30.3893 0.77145C29.393 -0.231108 27.6494 -0.231108 26.6531 0.77145L1.24723 26.3367C0.250923 27.3392 0.250923 29.0937 1.24723 30.0963L16.69 45.6359C17.9354 46.8891 19.4299 47.3904 21.1734 47.3904C21.9207 47.3904 22.6679 47.1397 23.4151 46.8891L32.1328 55.6615C31.3856 56.9147 31.1365 58.4185 31.1365 59.9224C31.1365 64.9351 35.1218 68.9454 40.1033 68.9454C40.1033 73.9582 44.0886 77.9684 49.0701 77.9684C49.0701 82.9812 53.0554 86.9914 58.0369 86.9914C59.5314 86.9914 61.0258 86.4901 62.2712 85.9888L65.5092 89.2472C67.0037 90.751 68.9963 91.5029 71.238 91.5029C73.4797 91.5029 75.4723 90.751 76.9668 89.2472C78.4613 87.7433 79.2085 85.9889 79.2085 83.9837C81.2011 83.9837 83.1937 82.9812 84.6882 81.4773C86.1827 79.9735 87.179 77.7177 87.179 75.462C89.4207 75.2113 91.6624 74.2088 93.1568 72.705C94.6513 70.9505 95.3985 68.6947 95.3985 66.6896C97.6402 66.6896 99.6328 65.6871 101.127 64.1832C102.871 62.4287 103.618 60.4236 103.618 57.9172C103.618 56.664 103.369 55.1602 102.622 54.1576L111.339 46.1372C112.336 46.8891 113.581 47.3904 115.076 47.3904C116.819 47.3904 118.314 46.8891 119.559 45.6359L135.002 30.0963C135.749 29.0937 135.749 27.3392 134.753 26.3367ZM40.1033 63.6819C38.1107 63.6819 36.3672 61.9275 36.3672 59.9224C36.3672 57.9172 38.1107 56.1628 40.1033 56.1628C42.0959 56.1628 43.8395 57.9172 43.8395 59.9224C43.8395 62.1781 42.0959 63.6819 40.1033 63.6819ZM51.81 71.7024L51.5609 71.953C50.8137 72.4543 50.0664 72.9556 49.0701 72.9556C47.0775 72.9556 45.3339 71.2011 45.3339 69.196C45.3339 67.1909 47.0775 65.4364 49.0701 65.4364C51.0627 65.4364 52.8063 67.1909 52.8063 69.196C52.8063 69.9479 52.3081 70.9505 51.81 71.7024ZM60.7768 80.7254C60.7768 80.9761 60.5277 80.9761 60.7768 80.7254C60.0295 81.4773 59.0332 81.9786 58.0369 81.9786C56.0443 81.9786 54.3007 80.2241 54.3007 78.219C54.3007 77.2165 54.5498 76.4646 55.297 75.7126L55.5461 75.462C56.2934 74.9607 57.0406 74.4594 58.0369 74.4594C60.0295 74.4594 61.7731 76.2139 61.7731 78.219C61.7731 79.2216 61.2749 80.2241 60.7768 80.7254ZM97.3911 60.6743C96.6439 61.4262 95.8967 61.6768 95.1494 61.6768C94.1531 61.6768 93.4059 61.4262 92.9077 60.6743L87.428 55.1602C86.4317 54.1576 84.6882 54.1576 83.6919 55.1602C82.6956 56.1628 82.6956 57.9172 83.6919 58.9198L89.1716 64.4339C90.417 65.6871 90.666 67.9428 89.1716 69.4466C88.4243 70.1986 87.6771 70.6998 86.6808 70.6998C85.6845 70.6998 84.6882 70.4492 84.19 69.6973L78.9594 64.6845C77.9631 63.6819 76.2196 63.6819 75.2232 64.6845C74.2269 65.6871 74.2269 67.4415 75.2232 68.4441L80.952 73.9582C81.4502 74.4594 81.9483 75.2114 81.9483 75.9633C81.9483 76.7152 81.6993 77.4671 81.2011 77.9684C79.9557 79.2216 78.2122 79.2216 77.2159 77.9684L74.476 75.2114C73.4797 74.2088 71.7362 74.2088 70.7399 75.2114C70.2417 75.7126 69.9926 76.4646 69.9926 76.9658C69.9926 77.7178 70.2417 78.219 70.7399 78.7203L73.4797 81.4773C73.9779 81.9786 74.2269 82.7305 74.2269 83.4825C74.2269 84.2344 73.9779 84.9863 73.4797 85.4876C72.9815 85.9888 72.2343 86.2395 71.4871 86.2395C70.7399 86.2395 69.9926 85.9888 69.4945 85.4876L66.2565 82.2293C67.0037 80.9761 67.2528 79.4722 67.2528 77.9684C67.2528 72.9556 63.2675 68.9454 58.286 68.9454C58.286 63.9326 54.3007 59.9224 49.3192 59.9224C49.3192 54.9096 45.3339 50.8993 40.3524 50.8993C38.8579 50.8993 37.3635 51.4006 36.1181 51.9019L27.8985 43.6308L51.3118 20.0707L55.297 24.0809C55.7952 24.5822 56.5424 24.8328 57.0406 24.8328H60.2786L49.8173 35.3597C48.3229 36.8635 47.3266 39.1193 47.3266 41.375C47.3266 43.6308 48.3229 45.8865 49.8173 47.3904C51.3118 48.8942 53.5535 49.8968 55.7952 49.8968C58.0369 49.8968 60.2786 48.8942 61.7731 47.3904L70.4908 38.618H80.2048L97.3911 55.6615C98.1384 56.4134 98.3875 57.1653 98.3875 58.1679C98.3875 59.1704 97.8893 59.9224 97.3911 60.6743ZM99.1347 50.1474L82.9446 34.1065C82.4465 33.6052 81.4502 33.3546 80.7029 33.3546L69.2454 33.1039C68.4982 33.1039 67.7509 33.3546 67.2528 33.8559L58.0369 43.8814C57.5387 44.3827 56.5424 44.884 55.7952 44.884C55.048 44.884 54.0517 44.6333 53.5535 43.8814C53.0553 43.3801 52.5572 42.3776 52.5572 41.6257C52.5572 40.8738 52.8063 39.8712 53.5535 39.3699L67.7509 25.0835H80.4539C81.2011 25.0835 81.9483 24.8328 82.1974 24.3316L85.6845 20.8226L107.354 42.6282L99.1347 50.1474Z" fill="white"/>
</svg>
