<svg width="122" height="108" viewBox="0 0 122 108" fill="none" xmlns="http://www.w3.org/2000/svg">
<g clip-path="url(#clip0)">
<path d="M110.842 38.5319C110.842 39.875 109.725 40.9943 108.386 40.9943C107.046 40.9943 105.93 39.875 105.93 38.5319C105.93 37.1888 107.046 36.0696 108.386 36.0696C109.949 36.2934 110.842 37.1888 110.842 38.5319Z" fill="white"/>
<path d="M48.3323 52.4106C48.3323 53.7537 47.2161 54.8729 45.8766 54.8729C44.5371 54.8729 43.4209 53.7537 43.4209 52.4106C43.4209 51.0675 44.5371 49.9482 45.8766 49.9482C47.2161 49.9482 48.3323 51.0675 48.3323 52.4106Z" fill="white"/>
<path d="M114.636 11.67H96.3302C95.214 5.17835 89.6328 0.253662 82.7121 0.253662C76.0147 0.253662 70.2103 5.17835 69.094 11.67H50.7878C46.9925 11.67 43.6438 14.8039 43.6438 18.8332V30.6972H30.4723C31.8117 28.9064 32.4815 26.6679 32.4815 24.2055C32.4815 17.9378 27.3468 13.0131 21.3191 13.0131C15.0682 13.0131 10.1568 18.1616 10.1568 24.2055C10.1568 27.3394 11.4962 30.2495 13.7287 32.2641C5.91506 35.398 0.557129 43.0089 0.557129 51.5152V69.1993C0.557129 74.5716 4.79883 79.0486 10.1568 79.4963V102.553H4.12908C2.7896 102.553 1.67336 103.672 1.67336 105.015C1.67336 106.358 2.7896 107.478 4.12908 107.478H69.3173H97.6697H117.092C118.432 107.478 119.548 106.358 119.548 105.015C119.548 103.672 118.432 102.553 117.092 102.553H99.2324L92.535 82.4064H114.636C118.432 82.4064 121.78 79.2725 121.78 75.2432V18.8332C121.557 14.8039 118.432 11.67 114.636 11.67ZM82.7121 4.9545C86.9538 4.9545 90.3025 7.86454 91.4187 11.67H74.0055C74.8985 7.86454 78.4704 4.9545 82.7121 4.9545ZM21.3191 17.7139C24.8911 17.7139 27.7933 20.624 27.7933 24.2055C27.7933 27.7871 24.8911 30.6972 21.3191 30.6972C17.7472 30.6972 14.845 27.7871 14.845 24.2055C14.845 20.624 17.7472 17.7139 21.3191 17.7139ZM29.356 43.0089V102.553H24.4446V75.9147C24.4446 74.5716 23.3283 73.4524 21.9889 73.4524C20.6494 73.4524 19.5331 74.5716 19.5331 75.9147V102.553H14.845V52.1867C14.845 50.8436 13.7287 49.7244 12.3892 49.7244C11.0497 49.7244 9.93351 50.8436 9.93351 52.1867V74.7955C7.25454 74.3478 5.24532 71.8855 5.24532 69.1993V51.5152C5.24532 42.5612 12.6125 35.398 21.7656 35.398H65.2988C64.4058 38.5319 61.5036 40.5465 58.1549 40.5465H31.8117C30.4723 40.5465 29.356 41.6658 29.356 43.0089ZM94.321 102.553H72.666L79.3634 82.4064H87.6235L94.321 102.553ZM116.869 75.2432C116.869 76.5863 115.753 77.4817 114.636 77.4817H50.7878C49.4483 77.4817 48.5553 76.3624 48.5553 75.2432V61.3645C48.5553 60.0214 47.439 58.9022 46.0996 58.9022C44.7601 58.9022 43.6438 60.0214 43.6438 61.3645V75.2432C43.6438 79.0486 46.7693 82.4064 50.7878 82.4064H74.452L67.7545 102.553H34.0442V45.4712H58.1549C64.8523 45.4712 70.4335 39.875 70.4335 33.1595C70.4335 31.8164 69.3173 30.6972 67.9778 30.6972H48.332V18.8332C48.332 17.4901 49.4483 16.5947 50.5645 16.5947H114.413C115.753 16.5947 116.646 17.7139 116.646 18.8332V75.2432H116.869Z" fill="white"/>
<path d="M103.028 44.1281C102.135 43.2327 100.572 43.2327 99.679 44.1281L89.6329 54.2013L85.8377 50.3959C84.9447 49.5005 83.382 49.5005 82.489 50.3959L69.5407 63.3791L65.9687 59.7976C65.5222 59.3499 64.8525 59.126 64.406 59.126C63.7362 59.126 63.0665 59.3499 62.8432 59.7976L56.1458 66.513C55.2528 67.4084 55.2528 68.9754 56.1458 69.8708C56.5923 70.3185 57.2621 70.5423 57.7085 70.5423C58.3783 70.5423 58.8248 70.3185 59.2713 69.8708L64.406 64.7222L67.9779 68.3038C68.8709 69.1992 70.4336 69.1992 71.3266 68.3038L84.275 55.3206L88.0702 59.126C88.9632 60.0214 90.5259 60.0214 91.4189 59.126L103.251 47.262C103.921 46.5904 103.921 45.0235 103.028 44.1281Z" fill="white"/>
</g>
<defs>
<clipPath id="clip0">
<rect width="121" height="107" fill="white" transform="translate(0.557129 0.253662)"/>
</clipPath>
</defs>
</svg>
