<svg width="124" height="94" viewBox="0 0 124 94" fill="none" xmlns="http://www.w3.org/2000/svg">
<g clip-path="url(#clip0)">
<path d="M38.0585 43.3178C38.0585 44.6922 36.9239 45.8375 35.5622 45.8375C34.2006 45.8375 33.0659 44.6922 33.0659 43.3178C33.0659 41.9434 34.2006 40.7981 35.5622 40.7981C36.9239 40.7981 38.0585 41.9434 38.0585 43.3178Z" fill="white"/>
<path d="M51.6748 51.3349C51.6748 52.7093 50.5401 53.8546 49.1784 53.8546C47.8168 53.8546 46.6821 52.7093 46.6821 51.3349C46.6821 49.9605 47.8168 48.8152 49.1784 48.8152C50.5401 49.0442 51.6748 49.9605 51.6748 51.3349Z" fill="white"/>
<path d="M65.291 36.4457C65.291 37.8201 64.1563 38.9654 62.7947 38.9654C61.433 38.9654 60.2983 37.8201 60.2983 36.4457C60.2983 35.0713 61.433 33.926 62.7947 33.926C64.3832 33.926 65.291 35.0713 65.291 36.4457Z" fill="white"/>
<path d="M78.9072 42.4015C78.9072 43.7759 77.7725 44.9212 76.4109 44.9212C75.0492 44.9212 73.9146 43.7759 73.9146 42.4015C73.9146 41.0272 75.0492 39.8818 76.4109 39.8818C77.7725 39.8818 78.9072 41.0272 78.9072 42.4015Z" fill="white"/>
<path d="M92.0703 25.2216C92.0703 26.596 90.9356 27.7413 89.574 27.7413C88.2123 27.7413 87.0776 26.596 87.0776 25.2216C87.0776 23.8472 88.2123 22.7019 89.574 22.7019C90.9356 22.7019 92.0703 23.8472 92.0703 25.2216Z" fill="white"/>
<path d="M121.345 73.096H72.5534C71.1917 73.096 70.0571 74.2414 70.0571 75.6157C70.0571 77.9064 68.2416 79.7389 65.9722 79.7389H58.0294C55.76 79.7389 53.9445 77.9064 53.9445 75.6157C53.9445 74.2414 52.8098 73.096 51.4482 73.096H13.7766V10.3325C13.7766 7.58371 16.046 5.29307 18.7692 5.29307H105.459C108.183 5.29307 110.452 7.58371 110.452 10.3325V57.0615C110.452 58.4359 111.587 59.5813 112.948 59.5813C114.31 59.5813 115.445 58.4359 115.445 57.0615V10.3325C115.445 4.83494 110.906 0.253662 105.459 0.253662H18.7692C13.3227 0.253662 9.01094 4.83494 9.01094 10.3325V73.096H3.11057C1.74894 73.096 0.614258 74.2414 0.614258 75.6157V79.5098C0.614258 87.0689 6.74156 93.2537 14.2305 93.2537H109.998C117.487 93.2537 123.614 87.0689 123.614 79.5098V75.6157C123.614 74.2414 122.707 73.096 121.345 73.096ZM118.849 79.2808C118.849 84.3202 114.764 88.2143 109.998 88.2143H14.2305C9.23787 88.2143 5.37994 84.0911 5.37994 79.2808V77.9064H49.6327C50.7674 81.5714 54.1715 84.3202 58.2563 84.3202H66.1991C70.284 84.3202 73.6881 81.5714 74.8227 77.9064H119.076V79.2808H118.849Z" fill="white"/>
<path d="M102.963 10.5615H22.1731C20.8114 10.5615 19.6768 11.7068 19.6768 13.0812V65.3078C19.6768 66.6822 20.8114 67.8275 22.1731 67.8275H103.19C104.551 67.8275 105.686 66.6822 105.686 65.3078V13.0812C105.459 11.7068 104.324 10.5615 102.963 10.5615ZM100.693 62.7881H92.0697V33.697C92.0697 32.3226 90.9351 31.1773 89.5734 31.1773C88.2118 31.1773 87.0771 32.3226 87.0771 33.697V62.7881H78.4535V52.0221C78.4535 50.6477 77.3188 49.5024 75.9572 49.5024C74.5956 49.5024 73.4609 50.6477 73.4609 52.0221V62.7881H64.8373V46.2955C64.8373 44.9211 63.7026 43.7758 62.341 43.7758C60.9793 43.7758 59.8447 44.9211 59.8447 46.2955V62.7881H51.221V60.4975C51.221 59.1231 50.0864 57.9778 48.7247 57.9778C47.3631 57.9778 46.2284 59.1231 46.2284 60.4975V62.7881H37.6048V53.1674C37.6048 51.793 36.4701 50.6477 35.1085 50.6477C33.7469 50.6477 32.6122 51.793 32.6122 53.1674V62.7881H23.9886V15.3719H100.239V62.7881H100.693Z" fill="white"/>
<path d="M114.991 66.4531C114.991 67.8274 113.856 68.9728 112.494 68.9728C111.133 68.9728 109.998 67.8274 109.998 66.4531C109.998 65.0787 111.133 63.9333 112.494 63.9333C114.083 63.9333 114.991 65.0787 114.991 66.4531Z" fill="white"/>
</g>
<defs>
<clipPath id="clip0">
<rect width="123" height="93" fill="white" transform="translate(0.614258 0.253662)"/>
</clipPath>
</defs>
</svg>
