<svg width="43" height="42" viewBox="0 0 43 42" fill="none" xmlns="http://www.w3.org/2000/svg">
<path d="M24.0538 31.1126C24.0568 28.6755 24.9647 26.3273 26.5996 24.5282C28.2345 22.7291 30.4786 21.6087 32.8922 21.3865C32.6042 21.3601 32.3128 21.3465 32.0182 21.3465C30.7404 21.3426 29.4743 21.5924 28.2926 22.0814C27.1109 22.5705 26.0368 23.2893 25.1318 24.1965C24.2269 25.1037 23.5089 26.1816 23.0189 27.3684C22.529 28.5552 22.2769 29.8275 22.2769 31.1125C22.2769 32.3975 22.529 33.6698 23.0189 34.8566C23.5089 36.0434 24.2269 37.1213 25.1318 38.0285C26.0368 38.9358 27.1109 39.6545 28.2926 40.1436C29.4743 40.6326 30.7404 40.8824 32.0182 40.8785C32.3128 40.8785 32.6042 40.8645 32.8922 40.8386C30.4786 40.6163 28.2346 39.4959 26.5997 37.6968C24.9648 35.8977 24.0569 33.5496 24.0538 31.1126Z" fill="#E5E5E5"/>
<path d="M26.7464 10.1121H25.4848V7.45208C25.4848 7.31316 25.4296 7.17993 25.3314 7.0817C25.2332 6.98347 25.1 6.92828 24.961 6.92828H22.9437V5.72503C22.9437 5.58611 22.8885 5.45289 22.7903 5.35465C22.6921 5.25642 22.5588 5.20124 22.4199 5.20124C22.281 5.20124 22.1478 5.25642 22.0495 5.35465C21.9513 5.45289 21.8961 5.58611 21.8961 5.72503V6.92828H19.8311C19.6921 6.92828 19.5589 6.98347 19.4607 7.0817C19.3624 7.17993 19.3073 7.31316 19.3073 7.45208V10.1121H17.734V6.73683C17.734 6.59791 17.6788 6.46468 17.5805 6.36645C17.4823 6.26822 17.3491 6.21304 17.2102 6.21304H14.9288V3.50964C14.9288 3.37072 14.8736 3.23749 14.7753 3.13926C14.6771 3.04103 14.5439 2.98584 14.405 2.98584H9.62629V1.28674C9.62629 1.14782 9.5711 1.01459 9.47287 0.916356C9.37464 0.818125 9.24141 0.762939 9.10249 0.762939C8.96357 0.762939 8.83035 0.818125 8.73211 0.916356C8.63388 1.01459 8.5787 1.14782 8.5787 1.28674V2.98584H3.98675C3.84783 2.98584 3.7146 3.04103 3.61637 3.13926C3.51814 3.23749 3.46296 3.37072 3.46296 3.50964V6.21304H1.182C1.04308 6.21304 0.90985 6.26822 0.811619 6.36645C0.713389 6.46468 0.658203 6.59791 0.658203 6.73683V35.5784C0.658203 35.7174 0.713389 35.8506 0.811619 35.9488C0.90985 36.0471 1.04308 36.1022 1.182 36.1022H23.1016V35.0546H17.734V11.1597H26.2229V22.3427H27.2705V10.6359C27.2705 10.5671 27.257 10.4989 27.2306 10.4354C27.2043 10.3718 27.1657 10.314 27.117 10.2654C27.0683 10.2167 27.0105 10.1782 26.9469 10.1519C26.8834 10.1256 26.8152 10.112 26.7464 10.1121ZM4.51064 4.03343H13.8812V6.21304H4.51064V4.03343ZM11.8777 35.0546H9.62629V29.7198H11.8777V35.0546ZM8.5787 35.0546H6.51416V29.7198H8.5787V35.0546ZM16.686 35.0546H12.9253V29.196C12.9253 29.0571 12.8701 28.9238 12.7719 28.8256C12.6737 28.7274 12.5405 28.6722 12.4015 28.6722H5.99036C5.85144 28.6722 5.71821 28.7274 5.61998 28.8256C5.52175 28.9238 5.46656 29.0571 5.46656 29.196V35.0546H1.7058V7.26063H16.6864L16.686 35.0546ZM20.3549 7.97587H24.4372V10.1121H20.3549V7.97587Z" fill="#777777"/>
<path d="M4.43542 15.5261H13.9598C14.0987 15.5261 14.2319 15.4709 14.3302 15.3727C14.4284 15.2745 14.4836 15.1412 14.4836 15.0023C14.4836 14.8634 14.4284 14.7302 14.3302 14.6319C14.2319 14.5337 14.0987 14.4785 13.9598 14.4785H4.43542C4.2965 14.4785 4.16327 14.5337 4.06504 14.6319C3.96681 14.7302 3.91162 14.8634 3.91162 15.0023C3.91162 15.1412 3.96681 15.2745 4.06504 15.3727C4.16327 15.4709 4.2965 15.5261 4.43542 15.5261Z" fill="#777777"/>
<path d="M4.43542 19.9072H13.9598C14.0987 19.9072 14.2319 19.852 14.3302 19.7538C14.4284 19.6556 14.4836 19.5223 14.4836 19.3834C14.4836 19.2445 14.4284 19.1113 14.3302 19.013C14.2319 18.9148 14.0987 18.8596 13.9598 18.8596H4.43542C4.2965 18.8596 4.16327 18.9148 4.06504 19.013C3.96681 19.1113 3.91162 19.2445 3.91162 19.3834C3.91162 19.5223 3.96681 19.6556 4.06504 19.7538C4.16327 19.852 4.2965 19.9072 4.43542 19.9072Z" fill="#777777"/>
<path d="M4.43542 24.2888H13.9598C14.0987 24.2888 14.2319 24.2336 14.3302 24.1354C14.4284 24.0372 14.4836 23.9039 14.4836 23.765C14.4836 23.6261 14.4284 23.4929 14.3302 23.3946C14.2319 23.2964 14.0987 23.2412 13.9598 23.2412H4.43542C4.2965 23.2412 4.16327 23.2964 4.06504 23.3946C3.96681 23.4929 3.91162 23.6261 3.91162 23.765C3.91162 23.9039 3.96681 24.0372 4.06504 24.1354C4.16327 24.2336 4.2965 24.2888 4.43542 24.2888Z" fill="#777777"/>
<path d="M4.43542 11.1448H13.9598C14.0987 11.1448 14.2319 11.0896 14.3302 10.9913C14.4284 10.8931 14.4836 10.7599 14.4836 10.621C14.4836 10.482 14.4284 10.3488 14.3302 10.2506C14.2319 10.1524 14.0987 10.0972 13.9598 10.0972H4.43542C4.2965 10.0972 4.16327 10.1524 4.06504 10.2506C3.96681 10.3488 3.91162 10.482 3.91162 10.621C3.91162 10.7599 3.96681 10.8931 4.06504 10.9913C4.16327 11.0896 4.2965 11.1448 4.43542 11.1448Z" fill="#777777"/>
<path d="M24.1311 23.1458H19.8651C19.7262 23.1458 19.593 23.2009 19.4947 23.2992C19.3965 23.3974 19.3413 23.5306 19.3413 23.6695C19.3413 23.8085 19.3965 23.9417 19.4947 24.0399C19.593 24.1382 19.7262 24.1933 19.8651 24.1933H24.1311C24.27 24.1933 24.4032 24.1382 24.5015 24.0399C24.5997 23.9417 24.6549 23.8085 24.6549 23.6695C24.6549 23.5306 24.5997 23.3974 24.5015 23.2992C24.4032 23.2009 24.27 23.1458 24.1311 23.1458Z" fill="#777777"/>
<path d="M22.8653 27.2889C22.8653 27.15 22.8101 27.0168 22.7119 26.9186C22.6137 26.8203 22.4804 26.7651 22.3415 26.7651H19.8651C19.7262 26.7651 19.593 26.8203 19.4947 26.9186C19.3965 27.0168 19.3413 27.15 19.3413 27.2889C19.3413 27.4279 19.3965 27.5611 19.4947 27.6593C19.593 27.7575 19.7262 27.8127 19.8651 27.8127H22.3415C22.4804 27.8127 22.6137 27.7575 22.7119 27.6593C22.8101 27.5611 22.8653 27.4279 22.8653 27.2889Z" fill="#777777"/>
<path d="M19.8651 30.6702C19.7262 30.6702 19.593 30.7254 19.4947 30.8236C19.3965 30.9218 19.3413 31.055 19.3413 31.194C19.3413 31.3329 19.3965 31.4661 19.4947 31.5643C19.593 31.6626 19.7262 31.7178 19.8651 31.7178H21.6598C21.7987 31.7178 21.932 31.6626 22.0302 31.5643C22.1284 31.4661 22.1836 31.3329 22.1836 31.194C22.1836 31.055 22.1284 30.9218 22.0302 30.8236C21.932 30.7254 21.7987 30.6702 21.6598 30.6702H19.8651Z" fill="#777777"/>
<path d="M19.8651 20.2883H23.9607C24.0996 20.2883 24.2328 20.2331 24.331 20.1349C24.4293 20.0367 24.4845 19.9034 24.4845 19.7645C24.4845 19.6256 24.4293 19.4924 24.331 19.3941C24.2328 19.2959 24.0996 19.2407 23.9607 19.2407H19.8651C19.7262 19.2407 19.593 19.2959 19.4947 19.3941C19.3965 19.4924 19.3413 19.6256 19.3413 19.7645C19.3413 19.9034 19.3965 20.0367 19.4947 20.1349C19.593 20.2331 19.7262 20.2883 19.8651 20.2883Z" fill="#777777"/>
<path d="M19.8651 16.4785H23.9607C24.0996 16.4785 24.2328 16.4233 24.331 16.3251C24.4293 16.2269 24.4845 16.0936 24.4845 15.9547C24.4845 15.8158 24.4293 15.6826 24.331 15.5843C24.2328 15.4861 24.0996 15.4309 23.9607 15.4309H19.8651C19.7262 15.4309 19.593 15.4861 19.4947 15.5843C19.3965 15.6826 19.3413 15.8158 19.3413 15.9547C19.3413 16.0936 19.3965 16.2269 19.4947 16.3251C19.593 16.4233 19.7262 16.4785 19.8651 16.4785Z" fill="#777777"/>
<path d="M32.0431 20.0725C29.9436 20.0725 27.8913 20.695 26.1456 21.8615C24.3999 23.0279 23.0393 24.6857 22.2358 26.6254C21.4324 28.5651 21.2221 30.6994 21.6317 32.7586C22.0412 34.8178 23.0522 36.7092 24.5368 38.1938C26.0213 39.6784 27.9128 40.6895 29.9719 41.0991C32.0311 41.5087 34.1654 41.2986 36.1051 40.4952C38.0448 39.6917 39.7027 38.3312 40.8692 36.5856C42.0357 34.8399 42.6583 32.7876 42.6583 30.6881C42.6552 27.8737 41.5358 25.1754 39.5458 23.1853C37.5557 21.1952 34.8575 20.0757 32.0431 20.0725ZM32.0431 40.2685C30.1482 40.2685 28.2958 39.7066 26.7203 38.6539C25.1447 37.6011 23.9167 36.1048 23.1915 34.3541C22.4664 32.6034 22.2767 30.677 22.6464 28.8185C23.016 26.96 23.9286 25.2529 25.2685 23.913C26.6084 22.5731 28.3156 21.6606 30.1741 21.291C32.0326 20.9213 33.959 21.1111 35.7097 21.8363C37.4603 22.5615 38.9566 23.7896 40.0093 25.3652C41.0621 26.9408 41.6239 28.7931 41.6238 30.6881C41.6209 33.2281 40.6106 35.6634 38.8145 37.4595C37.0184 39.2556 34.5832 40.2659 32.0431 40.2688V40.2685Z" fill="#04537B"/>
<path d="M32.0475 23.0449H32.0334C30.0083 23.0488 28.0673 23.8862 26.6362 25.3734C25.2052 26.8605 24.4009 28.876 24.3999 30.9778C24.4001 31.1087 24.4462 31.2351 24.5296 31.3333C24.613 31.4316 24.728 31.4951 24.8531 31.5118C24.9783 31.5286 25.105 31.4976 25.2097 31.4246C25.3145 31.3515 25.39 31.2415 25.4223 31.1149C25.4873 30.8588 25.6519 30.4063 25.8036 30.2281C26.0475 29.9863 26.3722 29.8519 26.7095 29.8534C27.0403 29.8525 27.3582 29.9861 27.5954 30.2254C27.8282 30.4776 27.9593 30.8127 27.9616 31.162C27.9616 31.3051 28.0164 31.4423 28.1138 31.5435C28.2113 31.6447 28.3436 31.7015 28.4815 31.7015C28.6193 31.7015 28.7516 31.6447 28.8491 31.5435C28.9466 31.4423 29.0013 31.3051 29.0013 31.162C28.9983 30.9891 29.0288 30.8173 29.0913 30.6569C29.1537 30.4966 29.2467 30.3509 29.3647 30.2288C29.4826 30.1066 29.6231 30.0104 29.7778 29.9459C29.9324 29.8815 30.098 29.8501 30.2646 29.8536H30.2709C30.6017 29.8528 30.9197 29.9863 31.1569 30.2256C31.3898 30.4778 31.5208 30.813 31.5231 31.1623V36.6109C31.5231 36.8935 31.4149 37.1646 31.2224 37.3644C31.0298 37.5642 30.7686 37.6765 30.4963 37.6765C30.224 37.6765 29.9629 37.5642 29.7703 37.3644C29.5777 37.1646 29.4696 36.8935 29.4696 36.6109V35.9483C29.4696 35.8052 29.4148 35.668 29.3173 35.5668C29.2198 35.4656 29.0876 35.4088 28.9497 35.4088C28.8118 35.4088 28.6796 35.4656 28.5821 35.5668C28.4846 35.668 28.4298 35.8052 28.4298 35.9483V36.6109C28.4298 37.1797 28.6475 37.7252 29.0351 38.1274C29.4226 38.5296 29.9483 38.7556 30.4963 38.7556C31.0444 38.7556 31.57 38.5296 31.9576 38.1274C32.3451 37.7252 32.5628 37.1797 32.5628 36.6109V31.162C32.5598 30.9891 32.5904 30.8173 32.6528 30.6569C32.7153 30.4966 32.8083 30.3509 32.9263 30.2288C33.0442 30.1066 33.1848 30.0104 33.3394 29.9459C33.4941 29.8815 33.6597 29.8501 33.8263 29.8536C34.1593 29.8512 34.4799 29.9849 34.7188 30.2256C34.9517 30.4778 35.0827 30.813 35.0849 31.1623C35.0849 31.3054 35.1397 31.4426 35.2372 31.5438C35.3347 31.645 35.4669 31.7018 35.6048 31.7018C35.7427 31.7018 35.8749 31.645 35.9724 31.5438C36.0699 31.4426 36.1247 31.3054 36.1247 31.1623C36.1216 30.9893 36.1521 30.8175 36.2146 30.6571C36.277 30.4967 36.3699 30.3511 36.4879 30.2289C36.6059 30.1067 36.7464 30.0104 36.9011 29.946C37.0557 29.8815 37.2214 29.8501 37.388 29.8536H37.3942C37.7247 29.8528 38.0423 29.986 38.2795 30.2247C38.4321 30.4001 38.5954 30.8488 38.6635 31.115C38.6958 31.2416 38.7714 31.3517 38.8761 31.4247C38.9809 31.4977 39.1077 31.5287 39.2328 31.5119C39.358 31.4951 39.473 31.4316 39.5563 31.3333C39.6397 31.235 39.6858 31.1085 39.6859 30.9776V30.9677C39.6824 28.8668 38.8764 26.853 37.4445 25.3679C36.0127 23.8827 34.0718 23.0474 32.0475 23.0449ZM37.3854 28.7746C36.7799 28.7744 36.1981 29.0185 35.7628 29.4552C35.7551 29.4627 35.7477 29.4704 35.7405 29.4782C35.6927 29.531 35.6474 29.5849 35.6046 29.6401C35.5619 29.5847 35.5166 29.5307 35.4687 29.4782C35.4641 29.4731 35.4594 29.468 35.4544 29.4631C35.0232 29.021 34.4413 28.7736 33.8352 28.7746C33.2262 28.7733 32.6403 29.0173 32.2011 29.4552C32.1936 29.4627 32.1862 29.4703 32.179 29.4781C32.1312 29.5309 32.0858 29.5848 32.043 29.64C32.0002 29.5847 31.9548 29.5306 31.907 29.4777C31.9023 29.4726 31.8976 29.4675 31.8928 29.4626C31.4616 29.0205 30.8796 28.773 30.2735 28.774H30.262C29.6566 28.7739 29.0747 29.018 28.6394 29.4547C28.6318 29.4621 28.6243 29.4699 28.6171 29.4778C28.5692 29.5305 28.524 29.5844 28.4813 29.6396C28.4385 29.5843 28.3933 29.5303 28.3454 29.4778C28.3407 29.4726 28.336 29.4675 28.331 29.4626C27.9922 29.1195 27.5609 28.8915 27.0943 28.8087C26.6278 28.7259 26.148 28.7923 25.7186 28.999C26.1287 27.5913 26.9639 26.3575 28.1009 25.4798C29.2379 24.602 30.6167 24.1266 32.0338 24.1237H32.043C32.0445 24.1239 32.046 24.1239 32.0475 24.1237C33.4646 24.1257 34.8437 24.6002 35.9813 25.4772C37.119 26.3542 37.955 27.5874 38.3661 28.9949C38.0585 28.8483 37.7239 28.7732 37.3854 28.7746Z" fill="#04537B"/>
</svg>
