<svg width="43" height="54" viewBox="0 0 43 54" fill="none" xmlns="http://www.w3.org/2000/svg">
<path d="M12.5075 43.7487C8.96912 41.2928 6.09035 35.7507 6.09035 31.3946V12.644L24.5036 3.46388L21.3346 1.87915L1.88818 11.5745V30.3251C1.88818 34.6812 4.76696 40.2232 8.30533 42.6792L21.3346 51.7253L22.6657 50.8012L12.5075 43.7487Z" fill="#E5E5E5"/>
<path d="M29.3477 36.0803C29.3255 36.0691 29.3027 36.0592 29.2793 36.0507L26.2749 34.9556V33.8694C26.2747 33.8427 26.2729 33.816 26.2695 33.7896C26.2686 33.7835 26.2676 33.7775 26.2666 33.7714C26.2635 33.751 26.2593 33.7307 26.2542 33.7107C26.2526 33.7044 26.2511 33.698 26.2493 33.6918C26.2424 33.6676 26.2341 33.6437 26.2244 33.6205C26.2226 33.6161 26.2204 33.6119 26.2184 33.6077C26.2098 33.5884 26.2003 33.5696 26.1898 33.5513C26.1863 33.545 26.1827 33.5388 26.1793 33.5327C26.1675 33.5135 26.1547 33.4949 26.1409 33.4769C26.1391 33.4746 26.1376 33.4721 26.1358 33.4699C26.1194 33.4495 26.1017 33.4302 26.083 33.412C26.0792 33.4082 26.0752 33.4048 26.0713 33.4013C26.0556 33.3866 26.0392 33.3728 26.0221 33.3598C26.0173 33.3561 26.0125 33.3523 26.0075 33.3491C25.986 33.3335 25.9635 33.3192 25.9402 33.3064H25.9396C25.921 33.2964 25.902 33.2873 25.8825 33.2792L24.1953 32.5774V32.5005C25.585 31.9017 26.7819 30.9233 27.6514 29.6752C28.5209 28.4271 29.0286 26.9588 29.1175 25.4353C29.6818 25.2031 30.1447 24.7738 30.4217 24.2257C30.6988 23.6775 30.7715 23.047 30.6267 22.4492C30.5509 22.1286 30.4003 21.8309 30.1875 21.581C29.9746 21.3312 29.7056 21.1364 29.403 21.013L29.544 18.9477C29.6247 17.7673 29.4642 16.5829 29.0725 15.4679C28.6808 14.3529 28.0663 13.3312 27.2671 12.4663C26.4679 11.6014 25.5012 10.9117 24.427 10.4402C23.3528 9.96867 22.1941 9.72534 21.0229 9.72534C19.8517 9.72534 18.6929 9.96867 17.6187 10.4402C16.5445 10.9117 15.5778 11.6014 14.7787 12.4663C13.9795 13.3312 13.365 14.3529 12.9733 15.4679C12.5816 16.5829 12.4211 17.7673 12.5017 18.9477L12.6425 21.0107C12.3387 21.1336 12.0686 21.3284 11.8547 21.5787C11.6409 21.829 11.4897 22.1275 11.4138 22.4491C11.269 23.0477 11.3422 23.6789 11.6201 24.2274C11.898 24.7759 12.362 25.2052 12.9273 25.4367C13.017 26.9684 13.53 28.444 14.4081 29.696C15.2862 30.9481 16.4941 31.9264 17.8948 32.5199V32.5666L16.2011 33.2708C16.0844 33.3194 15.9848 33.4021 15.9149 33.5082C15.845 33.6144 15.8081 33.7392 15.8089 33.8667V33.8705V34.9558L12.8045 36.0508C12.7811 36.0593 12.7583 36.0692 12.7361 36.0804C12.0286 36.4408 11.424 36.9779 10.9797 37.6407C10.5355 38.3036 10.2664 39.0701 10.1979 39.8676C10.1965 39.8853 10.1958 39.903 10.1958 39.9209V45.5917C10.1958 45.7615 10.2626 45.9244 10.3814 46.0444C10.5003 46.1645 10.6615 46.2319 10.8296 46.2319C10.9976 46.2319 11.1588 46.1645 11.2777 46.0444C11.3966 45.9244 11.4633 45.7615 11.4633 45.5917V39.9488C11.5163 39.3808 11.7096 38.8354 12.0255 38.3625C12.3414 37.8896 12.7697 37.5044 13.2712 37.2421L16.2088 36.1714L18.2353 38.9008C18.3325 39.0317 18.4756 39.12 18.6353 39.1477C18.7949 39.1753 18.959 39.1402 19.0938 39.0494L19.4213 38.8289L18.1827 45.5633C18.1666 45.6504 18.1687 45.74 18.1887 45.8263C18.2087 45.9126 18.2462 45.9938 18.2989 46.0647L20.5983 49.1616C20.6573 49.2411 20.7338 49.3056 20.8219 49.3501C20.9099 49.3945 21.0069 49.4176 21.1053 49.4176C21.2037 49.4176 21.3007 49.3945 21.3887 49.3501C21.4767 49.3056 21.5533 49.2411 21.6123 49.1616L23.912 46.0643C23.9646 45.9935 24.0021 45.9124 24.0221 45.8262C24.0421 45.7399 24.0442 45.6504 24.0282 45.5634L22.8093 38.9277L22.9901 39.0494C23.1249 39.1402 23.289 39.1753 23.4486 39.1477C23.6083 39.12 23.7514 39.0317 23.8486 38.9008L25.8751 36.1714L28.8127 37.2421C29.3142 37.5044 29.7425 37.8896 30.0584 38.3625C30.3742 38.8354 30.5675 39.3808 30.6206 39.9488V45.5919C30.6206 45.7616 30.6874 45.9245 30.8062 46.0445C30.9251 46.1646 31.0863 46.232 31.2543 46.232C31.4224 46.232 31.5836 46.1646 31.7025 46.0445C31.8213 45.9245 31.8881 45.7616 31.8881 45.5919V39.9214C31.8881 39.9037 31.8874 39.886 31.886 39.8681C31.8176 39.0705 31.5486 38.3038 31.1043 37.6409C30.66 36.9779 30.0553 36.4407 29.3477 36.0803ZM24.2993 34.005L24.1953 34.0751V33.9618L24.2993 34.005ZM21.0419 36.1987L19.1626 34.9331V32.9361C20.4005 33.2318 21.69 33.2285 22.9264 32.9264C22.9198 32.981 22.9203 33.0363 22.9278 33.0908V34.9287L21.0419 36.1987ZM15.7056 13.3401C16.7309 12.2304 18.0713 11.4687 19.5426 11.1598C21.0138 10.8508 22.5436 11.0097 23.9218 11.6146C25.3 12.2195 26.459 13.2408 27.2393 14.538C28.0196 15.8352 28.3831 17.3448 28.2797 18.8591L28.1367 20.9541L27.3151 17.5328C27.3068 17.4987 27.2959 17.4654 27.2823 17.4331C27.0041 16.7785 26.5493 16.2161 25.9698 15.8102C25.3902 15.4043 24.7094 15.1711 24.005 15.1374L23.275 15.1049C23.1693 15.1004 23.0641 15.1226 22.9691 15.1696C22.874 15.2165 22.792 15.2866 22.7306 15.3736C22.0513 16.3372 21.1304 17.1008 20.0624 17.5862C18.9944 18.0715 17.8179 18.2611 16.6534 18.1354L15.4261 18.0021C15.3012 17.9885 15.1748 18.0003 15.0545 18.0369C14.9342 18.0735 14.8223 18.134 14.7255 18.215C14.6288 18.296 14.5491 18.3958 14.4911 18.5084C14.4332 18.6211 14.3982 18.7443 14.3882 18.8708L14.1852 21.4345C14.1034 21.4038 14.0189 21.3711 13.9357 21.3379L13.7667 18.8591C13.6937 17.8537 13.8283 16.8439 14.1621 15.8938C14.4959 14.9437 15.0215 14.0741 15.7056 13.3401ZM14.1817 24.9644V24.9529C14.1817 24.8022 14.1292 24.6564 14.0332 24.5411C13.9373 24.4258 13.8042 24.3483 13.6573 24.3223C13.4863 24.2915 13.3234 24.2256 13.1786 24.1288C13.0338 24.0319 12.9102 23.9062 12.8154 23.7592C12.7205 23.6123 12.6565 23.4472 12.6272 23.2743C12.5979 23.1014 12.604 22.9243 12.6451 22.7538C12.6695 22.645 12.7168 22.5428 12.7838 22.4541C12.8508 22.3655 12.9358 22.2924 13.0333 22.2398C13.1252 22.3356 13.2318 22.4158 13.3489 22.4776C13.3664 22.4867 13.3844 22.495 13.4026 22.5024C14.5962 22.9856 14.8215 22.9668 15.0834 22.8027C15.1697 22.7485 15.2422 22.6747 15.2952 22.5871C15.3482 22.4995 15.3802 22.4006 15.3885 22.2983L15.6249 19.312L16.5179 19.4091C17.8473 19.5533 19.1912 19.3525 20.4225 18.8259C21.6537 18.2993 22.7317 17.4642 23.5545 16.3996L23.9491 16.4172C24.4065 16.4391 24.8491 16.5882 25.2279 16.848C25.6068 17.1078 25.9074 17.4683 26.0964 17.8896L27.2517 22.7003C27.2778 22.8089 27.3316 22.9088 27.4078 22.9899C27.4839 23.071 27.5798 23.1306 27.6858 23.1626C27.7918 23.1947 27.9043 23.1982 28.0121 23.1727C28.1199 23.1472 28.2192 23.0937 28.3001 23.0174L28.9293 22.4239C28.9776 22.3777 29.0226 22.3281 29.064 22.2755C29.2321 22.3851 29.3512 22.5568 29.3958 22.7538C29.437 22.924 29.4433 23.101 29.4142 23.2738C29.3852 23.4465 29.3214 23.6114 29.2269 23.7584C29.1323 23.9053 29.009 24.0312 28.8645 24.1281C28.72 24.2251 28.5574 24.2912 28.3867 24.3223C28.24 24.3485 28.1072 24.4261 28.0115 24.5414C27.9158 24.6567 27.8634 24.8023 27.8634 24.9528V24.9648C27.8634 25.8723 27.6865 26.7709 27.3427 27.6093C26.9989 28.4477 26.495 29.2094 25.8598 29.8511C25.2245 30.4928 24.4704 31.0018 23.6404 31.3491C22.8105 31.6963 21.9209 31.8751 21.0226 31.8751C20.1242 31.8751 19.2347 31.6963 18.4047 31.3491C17.5747 31.0018 16.8206 30.4928 16.1854 29.8511C15.5501 29.2094 15.0463 28.4477 14.7025 27.6093C14.3587 26.7709 14.1817 25.8723 14.1817 24.9648V24.9644ZM17.8951 34.0795L17.7774 34.0003L17.8951 33.9513V34.0795ZM18.8896 37.6481L17.0765 35.206V35.0673L18.0922 35.7514C18.1456 35.8029 18.2076 35.8447 18.2752 35.8747L19.8569 36.9399C19.829 36.9728 19.8044 37.0086 19.7837 37.0466L18.8896 37.6481ZM22.7312 45.5208L21.1053 47.7105L19.4795 45.5209L20.8925 37.8379L21.0418 37.7375L21.3376 37.9369L22.7312 45.5208ZM25.0074 35.206L23.1942 37.6481L22.4771 37.1652C22.4444 37.059 22.3847 36.9634 22.304 36.8878L23.872 35.8315C23.8985 35.8163 23.9239 35.7991 23.948 35.7803L25.0074 35.0668V35.206Z" fill="#777777"/>
<path d="M41.6836 10.9702L21.3233 1.02103C21.2357 0.978282 21.1394 0.956055 21.0418 0.956055C20.9442 0.956055 20.848 0.978282 20.7603 1.02103L0.400092 10.9414C0.292676 10.9938 0.202173 11.075 0.138869 11.176C0.0755657 11.277 0.0420017 11.3936 0.0419922 11.5126V30.4938C0.0419922 35.1819 3.21173 41.1463 7.10778 43.7892L20.6817 52.9994C20.7879 53.0714 20.9134 53.1099 21.0419 53.1099C21.1704 53.1099 21.296 53.0714 21.4022 52.9994L34.9761 43.7892C36.8743 42.5015 38.6519 40.4163 39.98 37.9178C41.3097 35.4172 42.042 32.7806 42.042 30.4938V11.5411C42.0419 11.4221 42.0083 11.3055 41.9449 11.2046C41.8816 11.1037 41.791 11.0224 41.6836 10.9702ZM40.7625 30.4938C40.7625 34.8112 37.8431 40.3041 34.2548 42.7382L21.0415 51.7041L7.82814 42.7382C4.23989 40.3046 1.32054 34.8112 1.32054 30.4938V11.9096L21.0415 2.30029L40.7631 11.9372L40.7625 30.4938Z" fill="#007296"/>
</svg>
