<svg width="65" height="63" viewBox="0 0 65 63" fill="none" xmlns="http://www.w3.org/2000/svg">
<path d="M37.6094 41.9537C37.6175 41.9399 37.6251 41.9258 37.6322 41.9114C38.1333 40.9058 39.2318 39.217 40.9549 39.2049L54.3993 39.1007C54.3235 39.0938 54.247 39.0901 54.1696 39.0901H54.1507L39.3553 39.2047C37.6315 39.2174 36.5337 40.9056 36.0326 41.9112C36.0255 41.9256 36.0179 41.9397 36.0098 41.9534L33.3838 46.4739L34.9903 46.4621L37.6094 41.9537Z" fill="#E5E5E5"/>
<path d="M34.6322 61.2229L34.6159 58.9894L35.6554 58.9822V58.9695L32.8154 58.9894L32.8318 61.2229C32.8324 61.2277 32.8349 61.2321 32.8387 61.2355C32.8425 61.2389 32.8475 61.241 32.8528 61.2414L34.6357 61.2294C34.6345 61.2272 34.6322 61.2252 34.6322 61.2229Z" fill="#E5E5E5"/>
<path d="M33.0708 57.2019C32.9203 57.1385 32.7914 57.0312 32.7001 56.8933C32.6089 56.7555 32.5593 56.5932 32.5577 56.4268C32.5573 56.3842 32.5537 56.3417 32.5469 56.2997L31.5541 50.2274C31.5541 50.1831 31.5563 50.139 31.5588 50.0953C31.6209 49.0358 32.311 47.9105 33.4717 47.8336C33.5022 47.8374 33.533 47.8395 33.5638 47.8397H33.5698L61.2148 47.6208C61.1539 47.6148 61.0916 47.6107 61.0268 47.6107C61.0199 47.6107 61.0136 47.6107 61.0057 47.6107C61.001 47.6107 60.9964 47.6107 60.9918 47.6099L31.9913 47.8397H31.9853C31.9545 47.8395 31.9237 47.8374 31.8932 47.8336C30.7325 47.9105 30.0424 49.0358 29.9803 50.0953C29.9778 50.139 29.9762 50.1831 29.9756 50.2274L30.9684 56.2997C30.9752 56.3417 30.9788 56.3842 30.9792 56.4268C30.9808 56.5932 31.0303 56.7555 31.1216 56.8933C31.2128 57.0312 31.3418 57.1385 31.4923 57.2019C31.5931 57.2459 31.7019 57.2675 31.8116 57.2655L33.2493 57.2542C33.1881 57.2437 33.1282 57.2262 33.0708 57.2019Z" fill="#E5E5E5"/>
<path d="M9.19965 50.5435L24.7076 61.1059C24.8373 61.1942 24.9907 61.2415 25.1477 61.2415C25.3048 61.2415 25.4581 61.1942 25.5879 61.1059L30.944 57.4579C31.0288 57.4002 31.1013 57.3263 31.1575 57.2406C31.2137 57.1549 31.2524 57.0589 31.2714 56.9583C31.2905 56.8576 31.2895 56.7542 31.2685 56.6539C31.2476 56.5536 31.207 56.4584 31.1492 56.3738C31.0914 56.2891 31.0175 56.2167 30.9316 56.1606C30.8458 56.1045 30.7497 56.0658 30.6489 56.0468C30.5481 56.0278 30.4445 56.0288 30.3441 56.0497C30.2437 56.0706 30.1484 56.1111 30.0636 56.1689L25.1478 59.5172L10.0799 49.2544C5.47526 46.1192 2.00279 39.5603 2.00279 33.9977V13.4373L25.15 2.11596L48.2928 13.4674V33.9977C48.2833 35.272 48.1202 36.5405 47.8071 37.7759C47.7818 37.8756 47.7766 37.9793 47.7916 38.081C47.8067 38.1828 47.8418 38.2806 47.8948 38.3687C47.9478 38.4569 48.0178 38.5337 48.1007 38.5948C48.1836 38.6558 48.2777 38.6999 48.3777 38.7245C48.4777 38.7491 48.5816 38.7537 48.6834 38.738C48.7852 38.7223 48.8829 38.6867 48.9708 38.6332C49.0588 38.5797 49.1353 38.5094 49.1959 38.4262C49.2565 38.3431 49.3001 38.2488 49.3241 38.1488C49.6674 36.7914 49.8457 35.3977 49.8552 33.9977V12.9814C49.8552 12.8356 49.8143 12.6927 49.7371 12.569C49.6599 12.4452 49.5495 12.3455 49.4185 12.2812L25.495 0.546864C25.388 0.494348 25.2703 0.467041 25.151 0.467041C25.0317 0.467041 24.914 0.494348 24.8069 0.546864L0.87802 12.25C0.74674 12.3142 0.636133 12.414 0.558777 12.5378C0.48142 12.6617 0.440417 12.8047 0.44043 12.9507V33.9977C0.44043 40.0304 4.20623 47.1441 9.19965 50.5435Z" fill="white"/>
<path d="M41.8151 38.0384C41.7785 38.1353 41.7613 38.2386 41.7644 38.3422C41.7676 38.4459 41.791 38.5478 41.8334 38.6423C41.8758 38.7367 41.9362 38.8218 42.0113 38.8925C42.0864 38.9632 42.1746 39.0182 42.2709 39.0544C42.3671 39.0905 42.4695 39.107 42.5721 39.1029C42.6747 39.0989 42.7755 39.0744 42.8686 39.0308C42.9618 38.9872 43.0455 38.9254 43.1149 38.849C43.1843 38.7726 43.238 38.6831 43.273 38.5856C43.8635 36.9808 44.1755 35.3786 44.1755 33.9541V16.9792C44.1755 16.8324 44.1348 16.6885 44.0579 16.5639C43.981 16.4394 43.8711 16.339 43.7407 16.2743L25.7748 7.3632C25.6682 7.31041 25.5511 7.28296 25.4324 7.28296C25.3137 7.28296 25.1965 7.31041 25.0899 7.3632L7.12412 16.2485C6.99344 16.3131 6.88334 16.4135 6.80633 16.5382C6.72932 16.6628 6.68849 16.8068 6.68848 16.9538V33.9538C6.68848 38.2158 9.52709 43.6378 13.0166 46.0401L24.9932 54.2892C25.1224 54.3782 25.2751 54.4258 25.4314 54.4258C25.5877 54.4258 25.7404 54.3782 25.8696 54.2892L30.0943 51.3796C30.2647 51.2622 30.382 51.0813 30.4203 50.8766C30.4586 50.6719 30.4148 50.4602 30.2986 50.2882C30.1824 50.1161 30.0032 49.9977 29.8005 49.959C29.5979 49.9203 29.3883 49.9645 29.2179 50.0819L25.432 52.69L13.893 44.7426C10.8309 42.6344 8.24388 37.6939 8.24388 33.9541V17.4436L25.4311 8.94284L42.6197 17.4685V33.9538C42.6201 35.1946 42.3417 36.607 41.8151 38.0384Z" fill="white"/>
<path d="M30.8978 26.7934L23.2463 33.3125L19.4372 29.4704C19.2922 29.3266 19.0921 29.242 18.8804 29.2348C18.6686 29.2277 18.4624 29.2986 18.3066 29.4322C18.1509 29.5658 18.0581 29.7512 18.0487 29.9481C18.0392 30.145 18.1137 30.3374 18.256 30.4835L22.6082 34.8735C22.7523 35.0189 22.9525 35.1053 23.1649 35.1136C23.3773 35.1219 23.5846 35.0516 23.7414 34.918L31.9831 27.8959C32.0616 27.8298 32.1254 27.7499 32.1706 27.6608C32.2158 27.5717 32.2416 27.4752 32.2466 27.3768C32.2516 27.2783 32.2356 27.18 32.1995 27.0873C32.1634 26.9947 32.108 26.9096 32.0365 26.837C31.9649 26.7643 31.8787 26.7055 31.7826 26.664C31.6865 26.6225 31.5826 26.5991 31.4768 26.5951C31.3709 26.5911 31.2653 26.6066 31.1659 26.6407C31.0666 26.6749 30.9754 26.7269 30.8978 26.7939V26.7934Z" fill="white"/>
<path d="M34.478 50.8262H34.4598C33.8146 50.8326 33.1981 51.094 32.7449 51.5533C32.2918 52.0127 32.0387 52.6326 32.041 53.2778C32.0433 53.9231 32.3008 54.5412 32.7572 54.9973C33.2137 55.4533 33.832 55.7103 34.4772 55.7121H34.4958C34.8166 55.711 35.134 55.6466 35.4299 55.5228C35.7259 55.3989 35.9945 55.218 36.2206 54.9904C36.4466 54.7627 36.6256 54.4927 36.7472 54.1959C36.8689 53.8991 36.931 53.5812 36.9298 53.2604C36.9286 52.9395 36.8643 52.6221 36.7405 52.3262C36.6166 52.0302 36.4357 51.7616 36.208 51.5355C35.9804 51.3095 35.7104 51.1306 35.4136 51.0089C35.1167 50.8872 34.7988 50.8251 34.478 50.8263V50.8262ZM34.4843 54.1468H34.478C34.247 54.1449 34.026 54.0521 33.863 53.8884C33.7 53.7246 33.6081 53.5032 33.6072 53.2722C33.6064 53.0411 33.6967 52.8191 33.8585 52.6542C34.0203 52.4893 34.2406 52.3948 34.4716 52.3913H34.4783C34.7111 52.3904 34.9346 52.4821 35.0998 52.6461C35.265 52.8101 35.3583 53.033 35.3592 53.2658C35.36 53.4985 35.2684 53.7221 35.1044 53.8873C34.9404 54.0525 34.7175 54.1458 34.4847 54.1467L34.4843 54.1468Z" fill="white"/>
<path d="M59.0095 50.6348H58.9914C58.3435 50.6371 57.723 50.8967 57.2665 51.3564C56.81 51.8162 56.5548 52.4385 56.5571 53.0864C56.5594 53.7343 56.819 54.3547 57.2788 54.8112C57.7386 55.2677 58.3608 55.5229 59.0087 55.5206H59.0273C59.6749 55.5151 60.294 55.2529 60.7486 54.7916C61.2033 54.3302 61.4563 53.7074 61.4523 53.0597C61.4467 52.4152 61.187 51.7989 60.7296 51.3449C60.2722 50.8908 59.654 50.6356 59.0095 50.6348ZM59.0158 53.9554H59.0091C58.7763 53.9562 58.5528 53.8645 58.3876 53.7005C58.2224 53.5365 58.1291 53.3136 58.1283 53.0808C58.1275 52.848 58.2191 52.6245 58.3832 52.4593C58.5472 52.2941 58.7701 52.2008 59.0029 52.2H59.0094C59.2422 52.1991 59.4657 52.2908 59.6309 52.4548C59.7961 52.6188 59.8894 52.8417 59.8903 53.0745C59.8911 53.3073 59.7995 53.5308 59.6355 53.696C59.4715 53.8612 59.2486 53.9545 59.0158 53.9554Z" fill="white"/>
<path d="M61.5471 46.2963L58.5731 40.9104C57.6254 39.2408 56.2458 37.3273 53.9324 37.3431L39.455 37.4605C37.579 37.4743 35.9313 38.768 34.8131 41.1042L31.8149 46.51C30.1409 46.7614 28.8531 48.2429 28.7393 50.1437C28.7334 50.2414 28.7308 50.3394 28.7316 50.4355C28.732 50.4767 28.7356 50.5178 28.7423 50.5584L29.7282 56.4564C29.7448 56.9783 29.9334 57.4802 30.2647 57.8838C30.5961 58.2874 31.0516 58.5702 31.5603 58.688L31.5751 60.8946C31.578 61.3127 31.7462 61.7126 32.0429 62.0072C32.3396 62.3018 32.7407 62.4671 33.1588 62.4671H33.1709L35.6032 62.4491C36.023 62.446 36.4245 62.2763 36.7193 61.9772C37.014 61.6782 37.178 61.2743 37.175 60.8544L37.1608 58.7167L56.4314 58.5671L56.4456 60.7005C56.4487 61.1184 56.6168 61.5183 56.9133 61.8128C57.2099 62.1073 57.6109 62.2726 58.0288 62.2728H58.0408L60.4731 62.2549C60.8928 62.2513 61.294 62.0814 61.5887 61.7824C61.8834 61.4834 62.0475 61.0798 62.0451 60.6601L62.0302 58.4427C62.5253 58.3067 62.9633 58.0148 63.2793 57.6102C63.5954 57.2057 63.7725 56.71 63.7845 56.1967L64.7031 50.2858C64.7095 50.2441 64.7126 50.2021 64.7123 50.1599C64.7112 49.1674 64.3508 48.2089 63.6977 47.4616C63.145 46.8263 62.3811 46.4124 61.5471 46.2963ZM36.1942 41.8425C36.2021 41.8284 36.2096 41.8139 36.2165 41.7992C36.7068 40.7687 37.7817 39.0382 39.4678 39.0259L53.9452 38.9085H53.9637C55.1368 38.9085 56.1096 39.7399 57.2079 41.6753L59.7459 46.2724L57.3961 46.2906C57.231 45.3382 56.735 44.4747 55.9955 43.8522C55.256 43.2298 54.3205 42.8884 53.3539 42.8883H53.3229C52.3504 42.8954 51.412 43.2476 50.6751 43.8822C49.9382 44.5169 49.4507 45.3926 49.2995 46.3533L33.6251 46.4747L36.1942 41.8425ZM55.7936 46.3033L50.901 46.3412C51.043 45.803 51.3583 45.3266 51.7981 44.9854C52.2379 44.6443 52.7778 44.4575 53.3344 44.4538H53.3533C53.9058 44.4548 54.4429 44.6358 54.8832 44.9695C55.3236 45.3031 55.6431 45.7712 55.7936 46.3028V46.3033ZM35.6098 60.8652C35.6094 60.8699 35.6073 60.8743 35.604 60.8777C35.6007 60.881 35.5964 60.8831 35.5917 60.8836L33.1593 60.9016C33.1547 60.9012 33.1504 60.8992 33.1471 60.896C33.1438 60.8927 33.1416 60.8885 33.1411 60.8839L33.1268 58.7476L35.5957 58.7286L35.6098 60.8652ZM60.4616 60.6897L58.0294 60.7075C58.0248 60.7071 58.0204 60.7051 58.0171 60.7019C58.0138 60.6987 58.0116 60.6945 58.011 60.6899L57.9968 58.5552L60.4656 58.5361L60.48 60.6709C60.48 60.6758 60.4781 60.6805 60.4746 60.684C60.4712 60.6875 60.4665 60.6896 60.4616 60.6897ZM62.2291 56.0121C62.2226 56.0538 62.2195 56.096 62.2198 56.1381C62.2202 56.3551 62.135 56.5635 61.9826 56.718C61.8303 56.8726 61.6232 56.9608 61.4062 56.9635L32.1181 57.1901C32.0094 57.1921 31.9015 57.1711 31.8015 57.1284C31.6523 57.0669 31.5245 56.9629 31.434 56.8292C31.3435 56.6956 31.2944 56.5382 31.2928 56.3768C31.2924 56.3355 31.2889 56.2943 31.2821 56.2536L30.2978 50.3653C30.2978 50.3224 30.3001 50.2797 30.3025 50.2373C30.3641 49.21 31.0482 48.1187 32.1989 48.0441C32.2292 48.0479 32.2597 48.0499 32.2902 48.0501H32.2962L61.0471 47.8273C61.0517 47.8273 61.0562 47.8281 61.0609 47.8281H61.0818C61.3566 47.8288 61.6281 47.8891 61.8773 48.0049C62.1266 48.1206 62.3478 48.2891 62.5256 48.4987C62.9123 48.9487 63.1314 49.5185 63.1458 50.1117L62.2291 56.0121Z" fill="white"/>
<path d="M41.8604 51.0332H41.8545C41.7518 51.034 41.6501 51.0549 41.5555 51.095C41.4608 51.135 41.375 51.1933 41.3028 51.2665C41.2307 51.3397 41.1737 51.4264 41.135 51.5216C41.0964 51.6169 41.0769 51.7188 41.0777 51.8216L41.0889 53.3516C41.0904 53.5581 41.1735 53.7557 41.3201 53.9012C41.4667 54.0468 41.6649 54.1284 41.8715 54.1284H41.8774C41.9801 54.1277 42.0817 54.1067 42.1764 54.0667C42.2711 54.0266 42.3569 53.9684 42.4291 53.8952C42.5012 53.8219 42.5582 53.7352 42.5969 53.64C42.6355 53.5448 42.655 53.4429 42.6542 53.3401L42.643 51.8107C42.6417 51.604 42.5586 51.4063 42.412 51.2606C42.2654 51.115 42.0671 51.0332 41.8604 51.0332Z" fill="white"/>
<path d="M51.6231 50.9287H51.6169C51.5141 50.9294 51.4124 50.9504 51.3178 50.9904C51.2231 51.0305 51.1372 51.0887 51.0651 51.1619C50.9929 51.2351 50.9359 51.3218 50.8972 51.4171C50.8586 51.5123 50.8391 51.6143 50.8399 51.7171L50.8511 53.2471C50.8526 53.4536 50.9357 53.6512 51.0823 53.7967C51.2289 53.9423 51.4271 54.0239 51.6337 54.0239H51.6396C51.7423 54.0232 51.844 54.0022 51.9386 53.9622C52.0333 53.9221 52.1191 53.8639 52.1913 53.7907C52.2634 53.7175 52.3204 53.6308 52.3591 53.5355C52.3977 53.4403 52.4172 53.3384 52.4164 53.2356L52.4052 51.7056C52.4037 51.4991 52.3207 51.3016 52.1742 51.1561C52.0277 51.0106 51.8296 50.9288 51.6231 50.9287Z" fill="white"/>
<path d="M45.1148 50.9912H45.1088C44.9013 50.9928 44.7028 51.0767 44.5572 51.2245C44.4115 51.3724 44.3305 51.572 44.3321 51.7796L44.3434 53.3096C44.3449 53.5161 44.428 53.7137 44.5746 53.8592C44.7212 54.0048 44.9194 54.0864 45.126 54.0864H45.132C45.2348 54.0857 45.3364 54.0647 45.4311 54.0246C45.5257 53.9846 45.6116 53.9263 45.6837 53.8531C45.7558 53.7798 45.8128 53.6931 45.8514 53.5979C45.89 53.5026 45.9095 53.4007 45.9088 53.298L45.8974 51.7679C45.8959 51.5614 45.8127 51.3639 45.6661 51.2183C45.5195 51.0728 45.3213 50.9912 45.1148 50.9912Z" fill="white"/>
<path d="M48.3692 50.9497H48.3632C48.2604 50.9505 48.1588 50.9715 48.0641 51.0115C47.9695 51.0516 47.8836 51.1099 47.8115 51.1831C47.7394 51.2563 47.6824 51.343 47.6438 51.4382C47.6052 51.5335 47.5857 51.6354 47.5864 51.7382L47.5978 53.2682C47.5993 53.4747 47.6825 53.6723 47.8291 53.8178C47.9757 53.9633 48.1739 54.0449 48.3804 54.0449H48.3864C48.5939 54.0434 48.7924 53.9595 48.938 53.8116C49.0837 53.6638 49.1647 53.4641 49.1631 53.2566L49.1518 51.7266C49.1503 51.52 49.0672 51.3224 48.9206 51.1769C48.774 51.0314 48.5758 50.9497 48.3692 50.9497Z" fill="white"/>
</svg>
