<svg width="46" height="41" viewBox="0 0 46 41" fill="none" xmlns="http://www.w3.org/2000/svg">
<path d="M13.0024 17.5612C12.3098 17.084 11.6538 16.2472 11.2029 15.266C10.8591 14.518 10.6697 13.7506 10.6697 13.1055V6.16201L17.4101 2.82723L15.2139 1.73804L8.05371 5.28058V12.2234C8.05371 12.8689 8.24305 13.6363 8.58684 14.384C9.03782 15.3655 9.69375 16.202 10.3864 16.6791L15.2145 20.0054L15.8827 19.545L13.0024 17.5612Z" fill="#E5E5E5"/>
<path d="M45.917 23.5088C45.9121 23.4779 45.9046 23.4474 45.8944 23.4178C45.8931 23.4136 45.8915 23.4094 45.89 23.4053C45.879 23.3755 45.8656 23.3466 45.8497 23.3191L45.8428 23.3076C45.8256 23.2796 45.8061 23.2532 45.7843 23.2287C45.7829 23.227 45.7819 23.225 45.7804 23.2233L39.35 16.1431C39.0644 15.8294 38.7177 15.5789 38.3315 15.4074C37.9454 15.2359 37.5283 15.1471 37.1065 15.1466H29.6718V11.4985C29.6708 10.6825 29.3496 9.90026 28.7786 9.32332C28.2076 8.74638 27.4335 8.42193 26.626 8.42114H23.3568C23.2113 8.42114 23.0717 8.47957 22.9688 8.58358C22.8659 8.68758 22.8081 8.82864 22.8081 8.97573C22.8081 9.12281 22.8659 9.26387 22.9688 9.36788C23.0717 9.47188 23.2113 9.53031 23.3568 9.53031H26.626C27.1425 9.53078 27.6377 9.73827 28.0029 10.1073C28.3681 10.4763 28.5736 10.9766 28.5742 11.4985V34.5304H16.3455C16.2108 33.3162 15.638 32.1947 14.7366 31.3802C13.8353 30.5658 12.6686 30.1156 11.4595 30.1156C10.2504 30.1156 9.08367 30.5658 8.18232 31.3802C7.28097 32.1947 6.70818 33.3162 6.5734 34.5304H3.96999C3.45364 34.5299 2.95861 34.3223 2.59348 33.9534C2.22836 33.5844 2.02297 33.0841 2.02237 32.5623V11.4985C2.02297 10.9767 2.22836 10.4764 2.59348 10.1075C2.9586 9.73849 3.45363 9.53092 3.96999 9.53031H7.23953C7.38508 9.53031 7.52466 9.47188 7.62758 9.36788C7.73049 9.26387 7.78831 9.12281 7.78831 8.97573C7.78831 8.82864 7.73049 8.68758 7.62758 8.58358C7.52466 8.47957 7.38508 8.42114 7.23953 8.42114H3.96999C3.16264 8.42207 2.38862 8.74659 1.81773 9.32352C1.24685 9.90044 0.925725 10.6826 0.924805 11.4985V32.5623C0.925725 33.3782 1.24685 34.1604 1.81774 34.7373C2.38863 35.3142 3.16265 35.6387 3.96999 35.6396H6.57295C6.70772 36.8539 7.28051 37.9754 8.18186 38.7898C9.08321 39.6042 10.2499 40.0545 11.459 40.0545C12.6681 40.0545 13.8348 39.6042 14.7362 38.7898C15.6375 37.9754 16.2103 36.8539 16.3451 35.6396H31.6592C31.7938 36.8539 32.3666 37.9755 33.2679 38.79C34.1693 39.6045 35.336 40.0548 36.5452 40.0548C37.7543 40.0548 38.9211 39.6045 39.8224 38.79C40.7238 37.9755 41.2965 36.8539 41.4312 35.6396H42.8796C43.687 35.6387 44.461 35.3142 45.0319 34.7373C45.6028 34.1604 45.9239 33.3782 45.9248 32.5623V23.5983C45.9246 23.5729 45.9227 23.5477 45.9191 23.5226C45.9185 23.518 45.9178 23.5134 45.917 23.5088ZM37.1065 16.2555C37.3763 16.2558 37.6431 16.3127 37.8901 16.4225C38.137 16.5322 38.3588 16.6925 38.5413 16.8933L44.1275 23.0442H29.6718V16.2555H37.1065ZM11.459 38.9453C10.7035 38.9453 9.96498 38.7189 9.3368 38.2947C8.70863 37.8706 8.21902 37.2677 7.9299 36.5623C7.64079 35.8569 7.56514 35.0807 7.71253 34.3319C7.85992 33.5831 8.22373 32.8953 8.75795 32.3554C9.29217 31.8155 9.97281 31.4479 10.7138 31.2989C11.4548 31.15 12.2228 31.2264 12.9208 31.5186C13.6188 31.8108 14.2154 32.3056 14.6351 32.9404C15.0549 33.5752 15.2789 34.3215 15.2789 35.085C15.2777 36.1085 14.8749 37.0897 14.1588 37.8134C13.4427 38.5371 12.4718 38.9441 11.459 38.9453ZM36.5451 38.9453C35.7896 38.9453 35.0511 38.7189 34.4229 38.2947C33.7948 37.8706 33.3052 37.2677 33.016 36.5623C32.7269 35.8569 32.6513 35.0807 32.7987 34.3319C32.9461 33.5831 33.3099 32.8953 33.8441 32.3554C34.3783 31.8155 35.0589 31.4479 35.7999 31.2989C36.5409 31.15 37.309 31.2264 38.0069 31.5186C38.7049 31.8108 39.3015 32.3056 39.7213 32.9404C40.141 33.5752 40.365 34.3215 40.365 35.085C40.3639 36.1085 39.9611 37.0897 39.2449 37.8134C38.5288 38.5371 37.5579 38.9442 36.5451 38.9453ZM44.8272 32.5623C44.8266 33.0841 44.6212 33.5844 44.2561 33.9534C43.891 34.3223 43.396 34.5299 42.8796 34.5304H41.4312C41.2965 33.3161 40.7238 32.1945 39.8224 31.38C38.9211 30.5655 37.7543 30.1153 36.5452 30.1153C35.336 30.1153 34.1693 30.5655 33.2679 31.38C32.3666 32.1945 31.7938 33.3161 31.6592 34.5304H29.6718V24.1529H44.8272V32.5623Z" fill="#777777"/>
<path d="M15.3832 21.3335C15.4934 21.3336 15.6011 21.3004 15.6922 21.2383L21.0655 17.5776C22.7063 16.4598 23.9918 14.031 23.9918 12.0481V4.51486C23.9918 4.41222 23.9631 4.31163 23.9088 4.22452C23.8545 4.13742 23.7768 4.06728 23.6847 4.02209L15.625 0.0675299C15.5498 0.0306502 15.4672 0.0114746 15.3835 0.0114746C15.2998 0.0114746 15.2172 0.0306502 15.1421 0.0675299L7.08204 4.01056C6.98976 4.05571 6.912 4.12586 6.85762 4.21303C6.80323 4.30019 6.7744 4.40087 6.77441 4.50361V12.0483C6.77441 12.8861 7.0031 13.8212 7.43578 14.7524C7.98984 15.9448 8.8154 16.9746 9.70079 17.5778L15.0739 21.2385C15.1651 21.3006 15.2729 21.3337 15.3832 21.3335ZM8.43167 14.29C8.07107 13.514 7.87248 12.718 7.87248 12.0488V4.84609L15.3826 1.17145L22.8938 4.85689V12.0483C22.8938 13.6504 21.7733 15.7671 20.4471 16.6705L15.3829 20.1208L10.3188 16.6705C9.59267 16.1754 8.90468 15.3077 8.43167 14.2894V14.29Z" fill="#04537B"/>
<path d="M19.1864 8.15027C19.1361 8.09867 19.0761 8.05748 19.0099 8.02907C18.9436 8.00065 18.8724 7.98556 18.8004 7.98466C18.7283 7.98376 18.6567 7.99707 18.5898 8.02382C18.5229 8.05057 18.4619 8.09024 18.4103 8.14057L14.4073 12.0448L12.3561 10.0441C12.3046 9.99329 12.2436 9.95319 12.1765 9.92607C12.1095 9.89895 12.0377 9.88535 11.9654 9.88605C11.8931 9.88676 11.8216 9.90175 11.7551 9.93016C11.6886 9.95858 11.6283 9.99986 11.5778 10.0516C11.5273 10.1034 11.4876 10.1647 11.4608 10.2319C11.4341 10.2991 11.4208 10.3709 11.4219 10.4432C11.423 10.5155 11.4384 10.5869 11.4672 10.6533C11.496 10.7196 11.5376 10.7796 11.5896 10.8298L14.0241 13.2044C14.1267 13.3043 14.2642 13.3603 14.4074 13.3603C14.5506 13.3603 14.6881 13.3043 14.7906 13.2044L19.1767 8.92634C19.2809 8.82471 19.3405 8.68585 19.3423 8.54031C19.3441 8.39478 19.2881 8.25447 19.1864 8.15027Z" fill="#04537B"/>
</svg>
