<svg width="43" height="53" viewBox="0 0 43 53" fill="none" xmlns="http://www.w3.org/2000/svg">
<path d="M35.6552 9.00656L32.1383 6.77487V3.44487C32.1383 3.27534 32.0707 3.11277 31.9505 2.9929C31.8303 2.87303 31.6673 2.80569 31.4973 2.80569C31.3272 2.80569 31.1642 2.87303 31.044 2.9929C30.9238 3.11277 30.8562 3.27534 30.8562 3.44487V5.96141L21.6713 0.133182C21.5684 0.0678862 21.449 0.0332031 21.327 0.0332031C21.2051 0.0332031 21.0857 0.0678862 20.9828 0.133182L6.99886 9.00656C6.88185 9.08085 6.79218 9.19098 6.74329 9.32042C6.69439 9.44986 6.68893 9.59161 6.72771 9.72441C6.7665 9.85721 6.84743 9.97388 6.95837 10.0569C7.06931 10.1399 7.20427 10.1848 7.34298 10.1849H10.516V28.1797C10.516 28.3493 10.5836 28.5118 10.7038 28.6317C10.824 28.7516 10.987 28.8189 11.157 28.8189H31.4973C31.6673 28.8189 31.8303 28.7516 31.9505 28.6317C32.0707 28.5118 32.1383 28.3493 32.1383 28.1797V10.1854H35.3113C35.45 10.1854 35.585 10.1405 35.6959 10.0574C35.8069 9.97441 35.8878 9.85774 35.9266 9.72494C35.9654 9.59215 35.9599 9.45039 35.911 9.32095C35.8621 9.19151 35.7724 9.08138 35.6554 9.00709L35.6552 9.00656ZM15.1953 22.6281C15.1862 22.4649 15.1148 22.3114 14.9958 22.1991C14.8767 22.0868 14.7191 22.0242 14.5552 22.0243H13.9018L13.9007 19.5935C13.9029 19.1222 14.0916 18.6709 14.426 18.3379C14.7603 18.0048 15.2131 17.817 15.6856 17.8153L18.0929 17.8137H18.0941C18.3863 17.8142 18.674 17.8861 18.932 18.0231C19.19 18.1601 19.4104 18.358 19.574 18.5995C19.5753 18.6015 19.5764 18.6036 19.5778 18.6056C19.5003 18.819 19.4606 19.0441 19.4603 19.271C19.4617 19.7954 19.6715 20.2978 20.0437 20.6682C20.4159 21.0387 20.9202 21.2469 21.4461 21.2472H21.4474C21.9496 21.2463 22.4327 21.0557 22.7996 20.7139C23.1665 20.372 23.3899 19.9043 23.4248 19.4048C23.4312 19.3996 23.4369 19.3935 23.4434 19.3883C23.7584 19.1333 24.152 18.9946 24.5578 18.9954L26.9649 18.9937H26.9662C27.4389 18.9938 27.8923 19.1806 28.2271 19.5134C28.5618 19.8462 28.7507 20.2977 28.7522 20.769L28.7533 22.61H28.0996C27.9359 22.61 27.7784 22.6726 27.6595 22.7848C27.5405 22.897 27.4692 23.0503 27.46 23.2133L27.2168 27.54H23.3625L23.4419 26.6671H24.135C24.2193 26.6671 24.3027 26.6506 24.3805 26.6184C24.4583 26.5863 24.529 26.5391 24.5885 26.4797C24.648 26.4203 24.6952 26.3498 24.7274 26.2722C24.7596 26.1946 24.7761 26.1114 24.776 26.0274L24.7748 24.3211C24.7726 23.5188 24.4515 22.7501 23.8818 22.1834C23.3121 21.6168 22.5403 21.2986 21.7357 21.2986H21.733L21.1507 21.3002C20.3461 21.302 19.5751 21.6215 19.0062 22.1888C18.4373 22.756 18.1169 23.5249 18.1151 24.3271L18.1164 26.0336C18.1164 26.2031 18.1839 26.3657 18.3041 26.4856C18.4244 26.6054 18.5874 26.6728 18.7574 26.6728H19.4533L19.5378 27.5415H15.4674L15.1953 22.6281ZM21.4452 18.5709C21.5373 18.5709 21.6285 18.589 21.7136 18.6241C21.7987 18.6593 21.876 18.7108 21.9411 18.7757C22.0062 18.8406 22.0579 18.9177 22.0931 19.0026C22.1283 19.0874 22.1465 19.1783 22.1465 19.2701C22.1465 19.362 22.1283 19.4529 22.0931 19.5377C22.0579 19.6226 22.0062 19.6997 21.9411 19.7646C21.876 19.8295 21.7987 19.881 21.7136 19.9162C21.6285 19.9513 21.5373 19.9694 21.4452 19.9694C21.3531 19.9694 21.2619 19.9513 21.1768 19.9162C21.0918 19.881 21.0144 19.8295 20.9493 19.7646C20.8842 19.6997 20.8326 19.6226 20.7973 19.5377C20.7621 19.4529 20.7439 19.362 20.7439 19.2701C20.7439 19.1783 20.7621 19.0874 20.7973 19.0026C20.8326 18.9177 20.8842 18.8406 20.9493 18.7757C21.0144 18.7108 21.0918 18.6593 21.1768 18.6241C21.2619 18.589 21.3531 18.5709 21.4452 18.5709ZM20.6738 25.9707C20.6585 25.8126 20.5846 25.6659 20.4667 25.5592C20.3487 25.4524 20.1951 25.3932 20.0358 25.3932H19.3986L19.3979 24.326C19.4001 23.8627 19.5859 23.4191 19.9148 23.0918C20.2437 22.7646 20.689 22.5802 21.1536 22.579L21.736 22.5774H21.7374C22.2018 22.5775 22.6473 22.7612 22.9762 23.0882C23.3051 23.4152 23.4907 23.8588 23.4923 24.3219L23.493 25.3891H22.856C22.6961 25.3892 22.542 25.4489 22.4239 25.5565C22.3059 25.664 22.2324 25.8117 22.218 25.9705L22.0749 27.5406H20.8264L20.6738 25.9707ZM31.4973 8.90706C31.3272 8.90706 31.1642 8.9744 31.044 9.09427C30.9238 9.21414 30.8562 9.37672 30.8562 9.54624V27.5406H28.501L28.7064 23.8884L29.3952 23.8879C29.5653 23.8879 29.7283 23.8205 29.8485 23.7007C29.9687 23.5808 30.0363 23.4182 30.0363 23.2487L30.0349 20.7686C30.0328 19.9583 29.7085 19.1819 29.1332 18.6096C28.5579 18.0372 27.7785 17.7158 26.9659 17.7156H26.9645L24.5569 17.7171C24.0298 17.7184 23.5118 17.8551 23.053 18.114C22.8694 17.8599 22.6279 17.6529 22.3484 17.5101C22.0689 17.3673 21.7594 17.2927 21.4453 17.2924H21.4439C21.0773 17.2929 20.7181 17.3952 20.4066 17.5879C20.119 17.2578 19.7637 16.9931 19.3647 16.8116C18.9657 16.63 18.5323 16.536 18.0937 16.5357H18.0915L15.6845 16.5373C14.8718 16.5393 14.0931 16.862 13.5184 17.4349C12.9438 18.0079 12.6202 18.7845 12.6183 19.5947L12.6196 22.6647C12.6196 22.8342 12.6872 22.9968 12.8074 23.1167C12.9276 23.2365 13.0907 23.3039 13.2607 23.3039H13.9483L14.1833 27.5416H11.7979V9.54624C11.7979 9.37672 11.7303 9.21414 11.6101 9.09427C11.4899 8.9744 11.3268 8.90706 11.1568 8.90706H9.54435L21.327 1.43007L31.0685 7.61134C31.1225 7.66018 31.1844 7.69948 31.2516 7.72756L33.1097 8.90706H31.4973Z" fill="#04537B"/>
<path d="M21.327 4.67603C20.822 4.67603 20.3283 4.82579 19.9083 5.10638C19.4884 5.38697 19.1611 5.78578 18.9678 6.25239C18.7745 6.71899 18.724 7.23243 18.8225 7.72777C18.921 8.22312 19.1642 8.67812 19.5214 9.03524C19.8785 9.39237 20.3335 9.63557 20.8288 9.7341C21.3242 9.83263 21.8376 9.78206 22.3042 9.58879C22.7708 9.39551 23.1696 9.06822 23.4502 8.64828C23.7308 8.22835 23.8806 7.73464 23.8806 7.2296C23.8798 6.55259 23.6105 5.90354 23.1318 5.42483C22.6531 4.94611 22.004 4.67682 21.327 4.67603ZM21.327 8.49851C21.0761 8.49851 20.8308 8.4241 20.6222 8.2847C20.4135 8.14529 20.2509 7.94715 20.1549 7.71532C20.0589 7.4835 20.0337 7.2284 20.0827 6.9823C20.1316 6.7362 20.2525 6.51013 20.4299 6.3327C20.6073 6.15527 20.8334 6.03444 21.0795 5.98549C21.3256 5.93653 21.5807 5.96166 21.8125 6.05768C22.0443 6.15371 22.2425 6.31632 22.3819 6.52496C22.5213 6.73359 22.5957 6.97888 22.5957 7.22981C22.5953 7.56614 22.4615 7.88857 22.2236 8.12637C21.9858 8.36417 21.6633 8.49793 21.327 8.4983V8.49851Z" fill="#04537B"/>
<path d="M16.9162 11.1761H16.9145C16.6105 11.174 16.3091 11.2385 16.0277 11.3659C15.7463 11.4934 15.4904 11.6812 15.2748 11.9186C15.0592 12.156 14.8881 12.4383 14.7714 12.7493C14.6547 13.0602 14.5946 13.3937 14.5947 13.7304C14.5948 14.0672 14.6551 14.4006 14.772 14.7115C14.8889 15.0223 15.0601 15.3045 15.2759 15.5418C15.4916 15.779 15.7476 15.9667 16.0291 16.0939C16.3106 16.2211 16.612 16.2854 16.916 16.2831H16.9178C17.2219 16.2852 17.5232 16.2207 17.8047 16.0932C18.0861 15.9658 18.3419 15.778 18.5575 15.5405C18.7732 15.3031 18.9442 15.0208 19.061 14.7099C19.1777 14.3989 19.2377 14.0655 19.2376 13.7287C19.2375 13.3919 19.1772 13.0585 19.0603 12.7477C18.9434 12.4368 18.7722 12.1546 18.5564 11.9174C18.3407 11.6801 18.0847 11.4925 17.8032 11.3653C17.5217 11.238 17.2202 11.1738 16.9162 11.1761ZM17.6992 14.5925C17.5967 14.7066 17.4748 14.797 17.3405 14.8586C17.2063 14.9202 17.0623 14.9518 16.917 14.9514H16.9161C16.6235 14.9514 16.3427 14.823 16.1354 14.5941C15.9281 14.3653 15.8111 14.0548 15.8101 13.7307C15.8103 13.4062 15.9269 13.0951 16.1342 12.8658C16.3414 12.6365 16.6224 12.5078 16.9153 12.5079V11.8421L16.9161 12.5079C17.2088 12.5079 17.4895 12.6363 17.6968 12.8652C17.9041 13.094 18.0211 13.4045 18.0221 13.7287C18.0226 13.8892 17.9943 14.0482 17.9389 14.1964C17.8835 14.3447 17.802 14.4794 17.6992 14.5925Z" fill="#04537B"/>
<path d="M27.9166 13.1334H27.2707C26.8519 12.7677 26.33 12.5685 25.7919 12.5689H25.7902C25.4791 12.5668 25.1707 12.6313 24.8827 12.7588C24.5948 12.8862 24.333 13.074 24.1123 13.3115C23.8917 13.5489 23.7167 13.8312 23.5972 14.1421C23.4778 14.4531 23.4164 14.7866 23.4165 15.1233C23.4166 15.4601 23.4783 15.7935 23.5979 16.1043C23.7175 16.4152 23.8927 16.6974 24.1135 16.9346C24.3343 17.1719 24.5962 17.3595 24.8843 17.4867C25.1723 17.614 25.4807 17.6783 25.7918 17.6759H25.7934C26.2017 17.6769 26.6032 17.5626 26.9582 17.3444C27.3132 17.1261 27.6095 16.8114 27.8178 16.4313H27.9164C28.1175 16.4331 28.3169 16.3918 28.5032 16.3097C28.6894 16.2276 28.8588 16.1065 29.0016 15.9532C29.1444 15.7999 29.2577 15.6175 29.3351 15.4165C29.4124 15.2156 29.4522 15.0001 29.4522 14.7824C29.4522 14.5647 29.4124 14.3492 29.3351 14.1482C29.2577 13.9473 29.1444 13.7649 29.0016 13.6116C28.8588 13.4583 28.6894 13.3371 28.5032 13.255C28.3169 13.173 28.1175 13.1316 27.9164 13.1334H27.9166ZM26.5933 15.9855C26.4883 16.0996 26.3635 16.1901 26.2261 16.2516C26.0886 16.3132 25.9413 16.3447 25.7925 16.3443C25.4931 16.3444 25.2058 16.2159 24.9937 15.9871C24.7815 15.7583 24.6619 15.4477 24.6608 15.1236C24.6609 14.9629 24.6902 14.8038 24.7471 14.6554C24.804 14.507 24.8873 14.3722 24.9923 14.2587C25.0973 14.1451 25.222 14.0551 25.3591 13.9937C25.4963 13.9323 25.6433 13.9007 25.7917 13.9008H25.7926C26.0921 13.9008 26.3794 14.0293 26.5915 14.2581C26.8036 14.4869 26.9233 14.7974 26.9243 15.1216C26.9247 15.2821 26.8957 15.4412 26.8388 15.5894C26.782 15.7377 26.6986 15.8723 26.5933 15.9854V15.9855ZM28.1496 14.9728C28.1414 14.8224 28.1208 14.6731 28.0881 14.5267C28.1198 14.5512 28.1466 14.5822 28.1669 14.6181C28.1873 14.654 28.2007 14.694 28.2064 14.7356C28.2122 14.7772 28.2101 14.8197 28.2003 14.8604C28.1906 14.9012 28.1733 14.9394 28.1496 14.9728Z" fill="#04537B"/>
<path d="M9.68855 33.0159C9.76855 33.1219 9.81359 33.2502 9.81741 33.3829C9.82123 33.5157 9.78365 33.6463 9.70987 33.7567C9.71787 33.7674 9.72618 33.7775 9.73418 33.7881C9.83704 33.922 9.98871 34.0099 10.1561 34.0325C10.3235 34.0551 10.493 34.0105 10.6277 33.9086C10.7624 33.8066 10.8513 33.6556 10.875 33.4884C10.8987 33.3211 10.8553 33.1513 10.7543 33.0159C10.1553 32.2249 9.4855 31.4902 8.75316 30.8207L6.98955 29.21C7.12087 29.1454 7.25854 29.0946 7.40036 29.0585C6.90578 28.9302 6.38157 28.9839 5.92334 29.21L7.68695 30.8207C8.41944 31.4901 9.08941 32.2249 9.68855 33.0159Z" fill="#E5E5E5"/>
<path d="M12.828 40.8042C12.8254 40.7935 12.8226 40.7819 12.8195 40.7707C12.6342 40.1116 12.2057 39.5473 11.6205 39.1919L6.96888 35.9871C5.9039 35.2454 5.10057 34.186 4.67366 32.9604L2.85151 23.1544C2.74325 22.9031 2.57209 22.6839 2.35453 22.518C2.13697 22.3521 1.88034 22.245 1.60938 22.207L3.60745 32.9604C4.03431 34.1861 4.83764 35.2456 5.90268 35.9875L10.5543 39.1923C11.1395 39.5476 11.568 40.1119 11.7533 40.771C11.7564 40.7817 11.7591 40.7933 11.7618 40.8045L12.4712 43.9523L13.3805 43.2564L12.828 40.8042Z" fill="#E5E5E5"/>
<path d="M12.6673 46.2551L18.9579 41.4358V40.6189L11.6011 46.2551V50.2163L12.6673 49.5111V46.2551Z" fill="#E5E5E5"/>
<path d="M23.8623 40.6189V41.4358L30.1529 46.2551V49.5111L31.2191 50.2163V46.2551L23.8623 40.6189Z" fill="#E5E5E5"/>
<path d="M35.8303 29.2101L34.0666 30.821C33.3343 31.4903 32.6645 32.2251 32.0655 33.0161C31.9645 33.1514 31.9211 33.3213 31.9448 33.4885C31.9685 33.6557 32.0574 33.8068 32.1921 33.9087C32.3268 34.0107 32.4963 34.0552 32.6637 34.0326C32.8311 34.01 32.9828 33.9222 33.0856 33.7882C33.0936 33.7775 33.1019 33.7674 33.1099 33.7569C33.0362 33.6464 32.9986 33.5158 33.0024 33.3831C33.0062 33.2503 33.0513 33.1221 33.1313 33.0161C33.7302 32.2251 34.4001 31.4903 35.1324 30.821L36.896 29.2101C36.4382 28.9841 35.9144 28.9302 35.4201 29.0582C35.5617 29.0945 35.6992 29.1454 35.8303 29.2101Z" fill="#E5E5E5"/>
<path d="M39.9684 23.154L38.1463 32.9604C37.7198 34.1856 36.917 35.2447 35.8526 35.9864L31.1994 39.1923C30.6142 39.5476 30.1857 40.1119 30.0005 40.771C29.9974 40.7817 29.9946 40.7933 29.992 40.8045L29.4395 43.2568L30.3488 43.9527L31.0582 40.8048C31.0608 40.7941 31.0636 40.7825 31.0667 40.7713C31.252 40.1122 31.6805 39.548 32.2657 39.1926L36.9188 35.9867C37.9832 35.2449 38.786 34.1857 39.2125 32.9604L41.2106 22.207C40.9397 22.2449 40.683 22.352 40.4654 22.5178C40.2479 22.6837 40.0767 22.9028 39.9684 23.154Z" fill="#E5E5E5"/>
<path d="M19.7982 38.7495C19.6904 38.6967 19.5701 38.6749 19.4507 38.6865C19.3312 38.698 19.2174 38.7425 19.1216 38.815L18.282 39.4568C18.263 39.3488 18.2499 39.2399 18.2428 39.1306L18.1706 37.8968C18.1695 37.8794 18.1673 37.8619 18.165 37.8445C17.9933 36.6049 17.4828 35.437 16.6899 34.4702C15.8969 33.5035 14.8526 32.7755 13.6723 32.3669L13.2721 32.2271C12.7371 32.0397 12.251 31.7342 11.8497 31.3331L9.9284 29.4078L9.27315 27.1854C9.11019 26.5822 8.77288 26.0408 8.30367 25.6293C7.83445 25.2178 7.25429 24.9546 6.63618 24.8728L6.5519 24.5908C6.55052 24.5858 6.54882 24.5801 6.54712 24.5754C6.22826 23.6009 5.19728 22.9613 4.12591 22.9865L4.12304 22.9768C3.9128 22.2687 3.43816 21.6692 2.79795 21.3031C2.15774 20.937 1.40131 20.8325 0.686171 21.0114C0.528419 21.0507 0.39158 21.1489 0.303613 21.2858C0.215646 21.4228 0.18319 21.5883 0.212878 21.7485L2.34381 33.2433C2.34936 33.2731 2.35696 33.3024 2.36656 33.3311C2.87661 34.8335 3.85266 36.1331 5.15211 37.04L9.80575 40.2538C9.81701 40.2616 9.82849 40.269 9.84029 40.276C10.1488 40.4605 10.3764 40.755 10.4774 41.1006L11.2561 44.5647C11.273 44.6393 11.3032 44.7103 11.3453 44.7742L10.5149 45.424C10.4393 45.4847 10.3789 45.5622 10.3384 45.6504C10.2979 45.7386 10.2785 45.835 10.2818 45.932V51.394C10.2785 51.5081 10.3065 51.6209 10.3627 51.7201C10.4189 51.8194 10.5012 51.9013 10.6007 51.9569C10.6905 52.0069 10.7915 52.0332 10.8942 52.0332C11.0179 52.0331 11.1387 51.9963 11.2415 51.9273L19.8697 46.2206C19.9589 46.1629 20.0326 46.0841 20.0844 45.9912C20.1361 45.8982 20.1643 45.794 20.1664 45.6876V39.3226C20.1638 39.2023 20.1281 39.0851 20.0631 38.9839C19.9981 38.8828 19.9064 38.8016 19.7982 38.7495ZM8.04299 27.5233C8.04437 27.5289 8.04597 27.5339 8.04756 27.54L8.18169 27.9949C7.96451 27.9005 7.73795 27.8295 7.50582 27.783L7.07005 26.325C7.30741 26.4446 7.51683 26.6132 7.68452 26.8197C7.85221 27.0263 7.97438 27.266 8.04299 27.5233ZM5.33269 24.9665L6.17458 27.7819C5.98076 27.8207 5.79073 27.8765 5.6067 27.9487L4.51864 24.3043C4.89734 24.3967 5.22258 24.6412 5.33237 24.9665H5.33269ZM11.7178 40.8013C11.7152 40.7907 11.7124 40.779 11.7093 40.768C11.5246 40.1094 11.0975 39.5456 10.5141 39.1904L5.87709 35.9883C4.81542 35.2471 4.01461 34.1885 3.58906 32.9639L1.59694 22.2197C1.89885 22.2619 2.18227 22.3902 2.41342 22.5894C2.64456 22.7886 2.81366 23.0502 2.90054 23.3431L4.39036 28.335L4.49228 28.6652C4.47592 28.681 4.45912 28.6962 4.44297 28.7123C4.38207 28.7734 4.33416 28.8462 4.30213 28.9264C4.27009 29.0066 4.2546 29.0924 4.25659 29.1788C4.25858 29.2651 4.278 29.3502 4.31369 29.4288C4.34937 29.5074 4.40058 29.5779 4.46422 29.6361L6.79561 31.7704C7.46859 32.3866 8.08406 33.0631 8.63437 33.7914C8.7369 33.9253 8.8881 34.0131 9.05496 34.0356C9.22182 34.0582 9.39081 34.0137 9.52507 33.9118C9.65932 33.81 9.74794 33.659 9.77159 33.4919C9.79524 33.3248 9.752 33.1552 9.65131 33.0199C9.05426 32.2295 8.38653 31.4953 7.65643 30.8265L5.8976 29.2163C6.29413 29.0193 6.7423 28.9519 7.17906 29.0235C7.61582 29.0951 8.01919 29.3022 8.33241 29.6156L10.9478 32.2371C11.4852 32.7743 12.1363 33.1835 12.8528 33.4344L13.2529 33.5742C14.2075 33.9046 15.0527 34.4922 15.6958 35.2726C16.339 36.053 16.7551 36.9959 16.8986 37.9978L16.9684 39.2047C16.9901 39.5778 17.0609 39.9463 17.179 40.3007L12.4255 43.9469L11.7178 40.8013ZM18.891 45.3437L11.5572 50.2059V46.248L18.891 40.6166V45.3437Z" fill="#777777"/>
<path d="M41.9685 21.0116C41.2534 20.8325 40.4969 20.9369 39.8567 21.303C39.2164 21.669 38.7418 22.2686 38.5317 22.9767L38.5287 22.9868C37.4567 22.9616 36.4259 23.6008 36.1076 24.5756C36.1059 24.5807 36.1042 24.5862 36.1028 24.5909L36.0185 24.8729C35.4003 24.9546 34.82 25.2177 34.3507 25.6292C33.8814 26.0407 33.544 26.5822 33.381 27.1854L32.7258 29.4079L30.8052 31.3331C30.4038 31.7342 29.9177 32.0398 29.3827 32.2272L28.9826 32.3667C27.8024 32.7753 26.758 33.5033 25.965 34.4701C25.1721 35.4369 24.6615 36.6048 24.4899 37.8444C24.4875 37.8618 24.4858 37.8792 24.4847 37.8967L24.4133 39.1303C24.4068 39.2397 24.3942 39.3487 24.3757 39.4566L23.5391 38.8149C23.4421 38.7423 23.3272 38.6978 23.2067 38.6863C23.0863 38.6747 22.965 38.6965 22.8561 38.7494C22.7479 38.8015 22.6562 38.8827 22.5912 38.9838C22.5262 39.085 22.4904 39.2022 22.4878 39.3225V45.6874C22.4903 45.794 22.5189 45.8984 22.5711 45.9914C22.6232 46.0843 22.6973 46.1631 22.7869 46.2207L31.4107 51.9273C31.5162 51.9964 31.6395 52.0332 31.7655 52.0332C31.8661 52.0332 31.965 52.0069 32.0524 51.9569C32.152 51.9013 32.2344 51.8194 32.2908 51.7202C32.3472 51.621 32.3754 51.5082 32.3724 51.394V45.9318C32.3756 45.8348 32.3562 45.7384 32.3157 45.6503C32.2752 45.5622 32.2148 45.4848 32.1393 45.4241L31.3004 44.7743C31.3438 44.7106 31.3754 44.6397 31.3938 44.5648L32.1747 41.1007C32.276 40.7551 32.5037 40.4607 32.8124 40.2762C32.8242 40.2691 32.8362 40.2618 32.8475 40.254L37.5033 37.0388C38.8022 36.1322 39.7777 34.833 40.2875 33.3311C40.2971 33.3024 40.3048 33.273 40.3104 33.2433L42.4413 21.7487C42.471 21.5886 42.4386 21.4231 42.3508 21.2861C42.2629 21.1491 42.1261 21.0509 41.9685 21.0116ZM37.3218 24.9666C37.4314 24.6411 37.7569 24.3965 38.1356 24.3041L37.0478 27.9495C36.8637 27.8773 36.6737 27.8215 36.4799 27.7827L37.3218 24.9666ZM34.6115 27.5233C34.6801 27.2661 34.8023 27.0263 34.9701 26.8198C35.1378 26.6132 35.3473 26.4446 35.5847 26.3251L35.149 27.7832C34.9169 27.8297 34.6903 27.9007 34.4731 27.995L34.6072 27.5401C34.6082 27.534 34.6098 27.5287 34.6112 27.5233H34.6115ZM31.0969 50.2056L23.7632 45.3435V40.6164L31.0969 46.2477V50.2056ZM39.0654 32.9641C38.6401 34.1882 37.8399 35.2463 36.7789 35.9874L32.1403 39.1905C31.557 39.5457 31.1299 40.1095 30.9452 40.768C30.9421 40.7787 30.9393 40.7903 30.9367 40.8014L30.2295 43.9467L25.476 40.3006C25.5941 39.9461 25.665 39.5776 25.6867 39.2045L25.7565 37.9977C25.8999 36.9958 26.3161 36.0529 26.9592 35.2725C27.6023 34.4921 28.4476 33.9044 29.4021 33.574L29.8021 33.4345C30.5186 33.1835 31.1697 32.7742 31.7072 32.237L34.3224 29.6157C34.6356 29.3023 35.039 29.0952 35.4757 29.0235C35.9125 28.9519 36.3607 29.0193 36.7573 29.2163L34.9985 30.8266C34.2683 31.4955 33.6005 32.2298 33.0034 33.0203C32.9027 33.1556 32.8595 33.3252 32.8831 33.4923C32.9068 33.6594 32.9954 33.8103 33.1296 33.9122C33.2639 34.014 33.4329 34.0585 33.5997 34.036C33.7666 34.0134 33.9178 33.9257 34.0203 33.7918C34.5706 33.0635 35.1861 32.387 35.8591 31.7708L38.1908 29.6362C38.2544 29.5779 38.3056 29.5074 38.3413 29.4288C38.377 29.3502 38.3964 29.2651 38.3984 29.1788C38.4004 29.0925 38.3849 29.0066 38.3529 28.9264C38.3208 28.8463 38.2729 28.7734 38.212 28.7123C38.1959 28.6962 38.1791 28.681 38.1627 28.6652L38.2663 28.3296L39.7543 23.344C39.8412 23.0511 40.0103 22.7895 40.2414 22.5904C40.4725 22.3912 40.7559 22.2629 41.0578 22.2208L39.0654 32.9641Z" fill="#777777"/>
</svg>
