<svg width="42" height="51" viewBox="0 0 42 51" fill="none" xmlns="http://www.w3.org/2000/svg">
<path d="M6.35839 12.5351C6.31465 12.4465 6.25 12.3698 6.17003 12.3117C6.09005 12.2535 5.99714 12.2158 5.8993 12.2015L3.37931 11.8357L5.20275 10.0583C5.27352 9.98932 5.32646 9.90414 5.357 9.81012C5.38753 9.71611 5.39475 9.61608 5.37803 9.51866L5.10571 7.93116L3.93157 7.31396L4.362 9.8238C4.37873 9.92122 4.37151 10.0213 4.34097 10.1153C4.31044 10.2093 4.2575 10.2945 4.18672 10.3635L2.36328 12.1406L4.88328 12.5064C4.98111 12.5206 5.07402 12.5584 5.154 12.6165C5.23398 12.6746 5.29862 12.7513 5.34236 12.84L6.46925 15.1233L7.05251 13.9415L6.35839 12.5351Z" fill="#E5E5E5"/>
<path d="M9.07123 12.2015C8.9228 12.2231 8.78756 12.2988 8.69141 12.4139L10.5751 12.1402L10.4348 12.0034L9.07123 12.2015Z" fill="#E5E5E5"/>
<path d="M20.6195 7.15703C20.5758 7.0684 20.5111 6.99174 20.4312 6.93364C20.3512 6.87554 20.2583 6.83776 20.1605 6.82354L17.6405 6.45773L19.464 4.68032C19.5348 4.61131 19.5877 4.52614 19.6182 4.43212C19.6488 4.33811 19.656 4.23808 19.6393 4.14065L19.3484 2.44108L18.1933 1.83374L18.6237 4.34358C18.6405 4.441 18.6332 4.54103 18.6027 4.63504C18.5722 4.72906 18.5192 4.81424 18.4485 4.88324L16.6245 6.66055L19.1445 7.02635C19.2423 7.04058 19.3352 7.07836 19.4152 7.13646C19.4951 7.19456 19.5597 7.27122 19.6035 7.35985L20.7304 9.6437L21.2886 8.51295L20.6195 7.15703Z" fill="#E5E5E5"/>
<path d="M23.3326 6.82366C23.2471 6.83639 23.1654 6.86722 23.0928 6.91409L24.8363 6.66067L24.7868 6.6123L23.3326 6.82366Z" fill="#E5E5E5"/>
<path d="M34.983 12.5351C34.9392 12.4465 34.8746 12.3698 34.7946 12.3117C34.7147 12.2536 34.6218 12.2158 34.524 12.2015L32.004 11.8357L33.8274 10.0583C33.8982 9.98933 33.9512 9.90415 33.9817 9.81014C34.0123 9.71612 34.0195 9.61609 34.0028 9.51866L33.7405 7.98979L32.4545 7.31396L32.8851 9.8238C32.9018 9.92123 32.8945 10.0213 32.864 10.1153C32.8334 10.2093 32.7805 10.2945 32.7097 10.3635L30.8862 12.1406L33.4062 12.5064C33.504 12.5206 33.5969 12.5584 33.6769 12.6165C33.7569 12.6746 33.8215 12.7513 33.8652 12.84L34.9922 15.1233L35.6263 13.8385L34.983 12.5351Z" fill="#E5E5E5"/>
<path d="M37.6952 12.2014C37.5548 12.2221 37.426 12.2912 37.3311 12.3968L39.0974 12.1401L38.9703 12.0161L37.6952 12.2014Z" fill="#E5E5E5"/>
<path d="M5.3855 35.5681C5.49908 35.6817 5.65305 35.7455 5.81359 35.7455L7.62773 35.7442L8.38627 49.4603C8.39485 49.6151 8.46234 49.7607 8.57488 49.8673C8.68742 49.9738 8.83645 50.0331 8.99135 50.0331H16.0801C16.2353 50.0331 16.3847 49.9734 16.4973 49.8664C16.6098 49.7594 16.6771 49.6132 16.6851 49.458L17.07 41.9825H17.7599L18.4869 49.4858C18.5015 49.6357 18.5714 49.7748 18.6829 49.876C18.7944 49.9771 18.9395 50.0332 19.09 50.0331H22.7825C22.9337 50.0331 23.0794 49.9765 23.191 49.8744C23.3027 49.7724 23.3721 49.6322 23.3858 49.4815L24.066 41.9752H24.2868L24.7521 49.4645C24.7617 49.6184 24.8296 49.7629 24.9418 49.8685C25.054 49.9741 25.2023 50.033 25.3563 50.0331H32.445C32.5998 50.0331 32.7488 49.9738 32.8613 49.8674C32.9738 49.7609 33.0413 49.6154 33.0499 49.4607L33.7573 36.8292L35.5727 36.828C35.7334 36.828 35.8875 36.7641 36.0011 36.6504C36.1147 36.5367 36.1785 36.3825 36.1785 36.2217L36.1761 31.6296C36.1726 30.2823 35.6357 28.9914 34.6828 28.0398C33.73 27.0882 32.4391 26.5535 31.0931 26.5531H31.0894L26.6497 26.5562C25.5871 26.5593 24.5522 26.895 23.6898 27.5163C23.437 26.9934 23.0421 26.5523 22.5505 26.2436C22.0589 25.9349 21.4903 25.771 20.9099 25.7707C20.9092 25.7707 20.9074 25.7707 20.9077 25.7707C20.1621 25.7692 19.4415 26.0399 18.8809 26.532C18.4124 25.8649 17.7906 25.3203 17.0678 24.9439C16.3451 24.5675 15.5426 24.3705 14.7279 24.3694H14.7241L10.2843 24.3726C8.93838 24.376 7.64853 24.9126 6.69674 25.8652C5.74495 26.8177 5.20865 28.1087 5.20508 29.4559L5.2075 35.14C5.20783 35.3007 5.27185 35.4547 5.3855 35.5681ZM23.5125 40.7626C23.3614 40.7626 23.2157 40.8193 23.1042 40.9213C22.9926 41.0234 22.9232 41.1635 22.9095 41.3141L22.2291 48.8204H19.6399L18.913 41.3168C18.8984 41.1668 18.8286 41.0276 18.7172 40.9263C18.6057 40.825 18.4605 40.7689 18.31 40.7689L16.5582 40.7701L16.5561 38.2171C16.5599 37.2063 16.963 36.238 17.6775 35.5236C18.3919 34.8092 19.3597 34.4066 20.3696 34.4038L21.4452 34.4006H21.448C22.4579 34.4008 23.4265 34.8017 24.1416 35.5155C24.8566 36.2293 25.2598 37.1978 25.2627 38.2086L25.2647 40.7616L23.5125 40.7626ZM20.9086 26.983H20.9099C21.4061 26.9829 21.882 27.1798 22.2334 27.5304C22.5847 27.881 22.7829 28.3568 22.7843 28.8534C22.7841 29.3504 22.5866 29.8269 22.2353 30.1781C21.8841 30.5294 21.4078 30.7266 20.9112 30.7264H20.9099C20.4139 30.7263 19.9381 30.5294 19.5868 30.1788C19.2355 29.8282 19.0374 29.3525 19.0359 28.856C19.0362 28.359 19.2336 27.8825 19.5849 27.5312C19.9361 27.18 20.4124 26.9828 20.9089 26.983H20.9086ZM7.552 26.7237C7.90988 26.3626 8.33568 26.0761 8.8048 25.8806C9.27392 25.6852 9.77708 25.5847 10.2852 25.5849L14.7249 25.5817H14.7279C15.3611 25.5826 15.9844 25.7388 16.5434 26.0365C17.1024 26.3342 17.58 26.7645 17.9345 27.2896C17.9951 27.3793 18.0512 27.4726 18.1044 27.5671C17.889 28.0374 17.7953 28.5544 17.8317 29.0705C17.8682 29.5866 18.0337 30.0853 18.3131 30.5206C18.5925 30.9559 18.9767 31.3139 19.4305 31.5617C19.8843 31.8095 20.393 31.9391 20.9099 31.9386H20.9122C21.73 31.9386 22.5143 31.6134 23.0926 31.0345C23.6709 30.4557 23.9959 29.6707 23.9959 28.8521C23.9959 28.8458 23.9959 28.8396 23.9959 28.8334C24.0726 28.7607 24.1513 28.69 24.2331 28.6242C24.9167 28.0689 25.7707 27.7666 26.6511 27.7684L31.0908 27.7653H31.0936C32.1185 27.7656 33.1015 28.1726 33.827 28.8971C34.5526 29.6216 34.9616 30.6044 34.9644 31.6303L34.9665 35.6161L33.1844 35.6173C33.0297 35.6175 32.8809 35.6768 32.7685 35.7833C32.6561 35.8897 32.5887 36.0351 32.58 36.1897L31.8727 48.8204H25.9259L25.5004 41.9742H25.8705C26.0312 41.9742 26.1853 41.9103 26.2989 41.7966C26.4125 41.6828 26.4763 41.5286 26.4763 41.3678L26.4738 38.2083C26.4703 36.8758 25.9391 35.599 24.9965 34.658C24.0539 33.717 22.777 33.1886 21.4458 33.1886H21.4421L20.3664 33.1918C19.0355 33.1952 17.7599 33.7259 16.8187 34.6678C15.8775 35.6098 15.3472 36.8865 15.3436 38.2187L15.3462 41.3782C15.3465 41.5223 15.398 41.6616 15.4916 41.7712C15.5852 41.8807 15.7147 41.9533 15.857 41.9759L15.5047 48.8204H9.56453L8.80598 35.1039C8.79741 34.9491 8.72995 34.8035 8.61745 34.6969C8.50496 34.5904 8.35597 34.5311 8.2011 34.5311L6.41928 34.5324L6.41706 29.4547C6.41618 28.9469 6.51605 28.444 6.71088 27.9752C6.90571 27.5064 7.19161 27.081 7.552 26.7237Z" fill="#777777"/>
<path d="M12.285 23.0418H12.2879C12.8107 23.0416 13.3283 22.9327 13.8112 22.7213C14.2941 22.5099 14.7328 22.2001 15.1024 21.8096C15.4719 21.4191 15.765 20.9556 15.9649 20.4455C16.1647 19.9355 16.2675 19.3888 16.2673 18.8368C16.2671 18.2848 16.164 17.7382 15.9638 17.2283C15.7635 16.7184 15.4701 16.2551 15.1004 15.8649C14.7306 15.4747 14.2916 15.1652 13.8086 14.9542C13.3255 14.7431 12.8078 14.6346 12.285 14.6348H12.2822C11.7594 14.635 11.2418 14.7439 10.7589 14.9553C10.276 15.1667 9.83723 15.4765 9.4677 15.867C9.09817 16.2575 8.8051 16.721 8.60522 17.2311C8.40533 17.7411 8.30255 18.2878 8.30273 18.8398C8.30292 19.3918 8.40607 19.9384 8.6063 20.4483C8.80653 20.9582 9.09992 21.4215 9.46971 21.8117C9.8395 22.2019 10.2785 22.5114 10.7615 22.7224C11.2446 22.9335 11.7623 23.042 12.285 23.0418ZM10.326 16.778C10.5825 16.5059 10.8875 16.2901 11.2234 16.1431C11.5593 15.9962 11.9195 15.921 12.2831 15.9219H12.285C13.0178 15.9219 13.7206 16.2287 14.2395 16.775C14.7584 17.3214 15.0509 18.0626 15.0531 18.8364C15.0529 19.2198 14.9813 19.5995 14.8422 19.9537C14.7031 20.3079 14.4993 20.6297 14.2425 20.9007C13.9856 21.1717 13.6807 21.3867 13.3451 21.5333C13.0096 21.6799 12.65 21.7552 12.2869 21.755H12.2848C11.5521 21.7549 10.8493 21.4481 10.3304 20.9018C9.81156 20.3554 9.51898 19.6142 9.5168 18.8404C9.51564 18.4572 9.58656 18.0776 9.72547 17.7235C9.86438 17.3695 10.0685 17.0481 10.326 16.778Z" fill="#777777"/>
<path d="M29.1677 24.8115H29.1707C29.9273 24.8108 30.6687 24.6023 31.3112 24.2094C31.9537 23.8165 32.4718 23.2548 32.807 22.5878H33.3459C33.9813 22.5837 34.5892 22.3326 35.037 21.8893C35.4848 21.4461 35.7362 20.8466 35.7362 20.2218C35.7362 19.597 35.4848 18.9975 35.037 18.5543C34.5892 18.111 33.9813 17.8599 33.3459 17.8558H31.8615C31.1201 17.2055 30.1612 16.8464 29.1678 16.8472H29.1649C28.6331 16.8473 28.1065 16.9505 27.6153 17.1508C27.124 17.3511 26.6777 17.6446 26.3018 18.0145C25.9259 18.3844 25.6278 18.8236 25.4244 19.3068C25.2211 19.79 25.1165 20.3079 25.1167 20.8308C25.1169 21.3538 25.2218 21.8716 25.4255 22.3547C25.6292 22.8378 25.9276 23.2767 26.3038 23.6463C26.6799 24.016 27.1265 24.3092 27.6179 24.5092C28.1092 24.7091 28.6359 24.8119 29.1677 24.8118V24.8115ZM34.5126 20.2224C34.5123 20.5264 34.3893 20.818 34.1707 21.033C33.952 21.248 33.6556 21.3689 33.3464 21.3692H33.1856C33.2105 21.1895 33.2231 21.0083 33.2232 20.8269C33.2233 20.2192 33.0808 19.6197 32.8069 19.0749H33.3459C33.6553 19.0751 33.952 19.1961 34.1707 19.4112C34.3895 19.6264 34.5124 19.9181 34.5126 20.2224ZM27.1748 18.8778C27.4357 18.6201 27.746 18.4157 28.0877 18.2764C28.4295 18.1372 28.7958 18.066 29.1657 18.0667H29.1678C29.5822 18.0666 29.9915 18.1564 30.3666 18.3298C30.7416 18.5033 31.073 18.756 31.3372 19.07V19.0754H31.3416C31.6801 19.4799 31.8946 19.9706 31.9602 20.4904C32.0258 21.0102 31.9397 21.5376 31.7121 22.0112C31.4844 22.4847 31.1246 22.8848 30.6745 23.1649C30.2244 23.445 29.7026 23.5934 29.1699 23.5929H29.1679C28.6117 23.5943 28.0677 23.4334 27.6047 23.1304C27.1417 22.8274 26.7806 22.3961 26.5671 21.8911C26.3537 21.3861 26.2975 20.8301 26.4057 20.2937C26.5139 19.7572 26.7817 19.2645 27.175 18.8778H27.1748Z" fill="#777777"/>
<path d="M15.0148 7.6018L18.4101 8.09895L19.9287 11.1981C19.9787 11.3 20.0559 11.3857 20.1516 11.4457C20.2474 11.5056 20.3579 11.5374 20.4707 11.5374C20.5834 11.5374 20.6939 11.5056 20.7897 11.4457C20.8855 11.3857 20.9627 11.3 21.0126 11.1981L22.5312 8.09895L25.9265 7.6018C26.0381 7.58546 26.143 7.538 26.2292 7.46478C26.3154 7.39156 26.3795 7.29551 26.4144 7.18748C26.4492 7.07945 26.4534 6.96376 26.4264 6.85349C26.3993 6.74321 26.3422 6.64275 26.2615 6.56347L23.8048 4.15087L24.3848 0.744575C24.4038 0.632629 24.3914 0.517548 24.3489 0.41234C24.3064 0.307133 24.2356 0.215996 24.1444 0.149233C24.0531 0.0824705 23.9452 0.0427446 23.8327 0.0345469C23.7203 0.0263493 23.6078 0.0500068 23.5079 0.102845L20.4707 1.71108L17.4337 0.102845C17.3339 0.0501473 17.2214 0.0266024 17.1091 0.0348684C16.9967 0.0431344 16.8888 0.082882 16.7977 0.149624C16.7065 0.216365 16.6357 0.307442 16.5933 0.412572C16.5508 0.517702 16.5383 0.632697 16.5573 0.744575L17.1365 4.15087L14.6798 6.56316C14.599 6.64244 14.5418 6.74292 14.5147 6.85324C14.4877 6.96356 14.4918 7.07931 14.5266 7.18739C14.5615 7.29547 14.6257 7.39157 14.7119 7.46481C14.7982 7.53805 14.9031 7.5855 15.0148 7.6018ZM18.2079 4.7996C18.278 4.7307 18.3305 4.64564 18.3608 4.55177C18.3911 4.4579 18.3982 4.35802 18.3816 4.26075L17.9549 1.7547L20.1892 2.93782C20.2759 2.98375 20.3725 3.00774 20.4705 3.00774C20.5684 3.00774 20.665 2.98375 20.7517 2.93782L22.986 1.7547L22.5593 4.26075C22.5427 4.35802 22.5499 4.4579 22.5801 4.55177C22.6104 4.64564 22.6629 4.7307 22.733 4.7996L24.5408 6.57402L22.0427 6.93927C21.9458 6.95347 21.8537 6.9912 21.7744 7.04921C21.6952 7.10722 21.6311 7.18377 21.5877 7.27226L20.4707 9.55266L19.3535 7.27267C19.3101 7.18417 19.246 7.10762 19.1668 7.04962C19.0875 6.99161 18.9954 6.95388 18.8985 6.93968L16.4004 6.57442L18.2079 4.7996Z" fill="#04537B"/>
<path d="M5.76963 16.5209C5.81956 16.6188 5.89677 16.7013 5.99254 16.7589C6.08831 16.8165 6.19883 16.8471 6.31159 16.8471C6.42436 16.8471 6.53487 16.8165 6.63064 16.7589C6.72642 16.7013 6.80363 16.6188 6.85355 16.5209L8.37163 13.5409L11.7673 13.0629C11.8789 13.0472 11.9838 13.0015 12.07 12.9311C12.1562 12.8607 12.2204 12.7684 12.2552 12.6645C12.2901 12.5606 12.2942 12.4494 12.2672 12.3433C12.2401 12.2373 12.183 12.1407 12.1023 12.0644L9.64523 9.74486L10.2253 6.46948C10.2443 6.36182 10.2319 6.25115 10.1894 6.14997C10.1469 6.04879 10.0761 5.96114 9.98481 5.89694C9.89357 5.83274 9.78559 5.79455 9.6731 5.78668C9.56061 5.77881 9.44809 5.80158 9.34826 5.85241L6.31159 7.39903L3.27442 5.85261C3.17459 5.80177 3.06207 5.779 2.94958 5.78687C2.83709 5.79474 2.72911 5.83294 2.63787 5.89714C2.54662 5.96134 2.47575 6.04898 2.43325 6.15016C2.39076 6.25134 2.37834 6.36202 2.39741 6.46967L2.97755 9.74505L0.520406 12.0646C0.439651 12.1409 0.382531 12.2375 0.355504 12.3435C0.328477 12.4496 0.332622 12.5608 0.367469 12.6647C0.402316 12.7685 0.466476 12.8609 0.552694 12.9313C0.638912 13.0017 0.743749 13.0474 0.855351 13.0631L4.25105 13.5411L5.76963 16.5209ZM4.04887 10.3686C4.11904 10.3023 4.17152 10.2205 4.20179 10.1303C4.23206 10.04 4.23922 9.94396 4.22264 9.85042L3.79592 7.44127L6.03034 8.57892C6.11708 8.62308 6.2136 8.64616 6.31159 8.64616C6.40958 8.64616 6.50611 8.62308 6.59285 8.57892L8.82736 7.44127L8.40054 9.851C8.38398 9.94455 8.39115 10.0406 8.42144 10.1309C8.45173 10.2211 8.50423 10.3029 8.57442 10.3691L10.3821 12.0754L7.88387 12.4266C7.7869 12.4403 7.69481 12.4765 7.61554 12.5323C7.53627 12.5881 7.4722 12.6618 7.42885 12.7469L6.31159 14.9391L5.19443 12.7469C5.15107 12.6618 5.08698 12.5881 5.0077 12.5323C4.92841 12.4765 4.8363 12.4402 4.73931 12.4266L2.24107 12.0754L4.04887 10.3686Z" fill="#04537B"/>
<path d="M38.4065 9.74486L38.9866 6.46948C39.0057 6.36182 38.9932 6.25115 38.9507 6.14997C38.9083 6.04879 38.8374 5.96114 38.7461 5.89694C38.6549 5.83274 38.5469 5.79455 38.4344 5.78668C38.322 5.77881 38.2094 5.80158 38.1096 5.85241L35.0726 7.39884L32.0355 5.85241C31.9357 5.80158 31.8232 5.77881 31.7107 5.78668C31.5982 5.79455 31.4902 5.83274 31.399 5.89694C31.3078 5.96114 31.2369 6.04879 31.1944 6.14997C31.1519 6.25115 31.1395 6.36182 31.1586 6.46948L31.7386 9.74486L29.2816 12.0644C29.2009 12.1407 29.1438 12.2373 29.1167 12.3433C29.0897 12.4494 29.0939 12.5606 29.1287 12.6645C29.1635 12.7684 29.2277 12.8607 29.3139 12.9311C29.4001 13.0015 29.505 13.0472 29.6166 13.0629L33.0121 13.5409L34.5306 16.5209C34.5806 16.6188 34.6578 16.7013 34.7535 16.7589C34.8493 16.8165 34.9598 16.8471 35.0726 16.8471C35.1853 16.8471 35.2958 16.8165 35.3916 16.7589C35.4874 16.7013 35.5646 16.6188 35.6145 16.5209L37.133 13.5409L40.5286 13.0629C40.6402 13.0472 40.745 13.0015 40.8312 12.9311C40.9174 12.8607 40.9816 12.7684 41.0164 12.6645C41.0513 12.5606 41.0554 12.4494 41.0284 12.3433C41.0014 12.2373 40.9443 12.1407 40.8635 12.0644L38.4065 9.74486ZM36.6448 12.4264C36.5478 12.44 36.4557 12.4763 36.3764 12.5321C36.2971 12.5879 36.233 12.6616 36.1897 12.7467L35.0726 14.9389L33.9554 12.7467C33.912 12.6616 33.8479 12.5879 33.7687 12.5321C33.6894 12.4763 33.5973 12.4401 33.5004 12.4264L31.0022 12.0752L32.8098 10.3687C32.88 10.3024 32.9325 10.2206 32.9628 10.1304C32.9931 10.0401 33.0003 9.94406 32.9837 9.85052L32.5569 7.44079L34.7913 8.57843C34.8781 8.62259 34.9746 8.64567 35.0726 8.64567C35.1706 8.64567 35.2671 8.62259 35.3538 8.57843L37.5881 7.44108L37.1614 9.85081C37.1449 9.94435 37.152 10.0404 37.1823 10.1307C37.2126 10.2209 37.265 10.3027 37.3352 10.3689L39.1428 12.0752L36.6448 12.4264Z" fill="#04537B"/>
</svg>
