<?xml version="1.0" standalone="no"?>
<!DOCTYPE svg PUBLIC "-//W3C//DTD SVG 20010904//EN"
 "http://www.w3.org/TR/2001/REC-SVG-20010904/DTD/svg10.dtd">
<svg version="1.0" xmlns="http://www.w3.org/2000/svg"
 width="698.000000pt" height="550.000000pt" viewBox="0 0 698.000000 550.000000"
 preserveAspectRatio="xMidYMid meet">

<g transform="translate(0.000000,550.000000) scale(0.100000,-0.100000)"
fill="#000000" stroke="none">
<path d="M4920 5493 c-8 -3 -41 -18 -72 -34 -40 -20 -71 -28 -106 -27 -59 0
-98 -18 -141 -67 -58 -67 -111 -202 -111 -287 l0 -33 45 3 c41 4 49 1 79 -32
l34 -35 45 40 c47 40 107 144 107 183 0 14 10 3 32 -34 17 -30 61 -84 97 -120
187 -184 435 -209 580 -59 l42 42 -34 12 c-69 24 -119 73 -222 219 -117 165
-211 237 -309 235 -28 0 -58 -3 -66 -6z"/>
<path d="M4321 4464 c-213 -57 -464 -256 -668 -529 -233 -311 -339 -612 -278
-786 18 -50 111 -150 193 -207 l54 -37 -7 -110 c-6 -97 -9 -112 -28 -125 -170
-117 -218 -285 -152 -530 8 -30 13 -55 12 -57 -2 -1 -30 32 -62 74 -166 216
-466 523 -630 646 -49 37 -94 67 -98 67 -5 0 1 -13 12 -28 29 -42 37 -83 81
-467 23 -192 42 -354 43 -358 1 -5 14 8 27 29 32 50 84 84 127 84 19 0 117
-16 218 -35 101 -19 209 -38 239 -41 39 -5 57 -12 60 -23 3 -9 46 -185 96
-391 50 -206 136 -557 191 -780 55 -222 97 -410 95 -417 -3 -6 -27 -18 -54
-27 -72 -21 -105 -40 -142 -82 -40 -46 -67 -106 -72 -159 l-3 -40 381 -3 380
-2 -17 152 c-10 84 -25 209 -33 278 -9 69 -25 244 -36 390 -24 313 -68 854
-77 958 l-6 72 378 0 378 0 -7 -77 c-14 -161 -47 -568 -66 -833 -20 -262 -43
-495 -74 -735 -8 -60 -16 -130 -17 -155 l-3 -45 377 -3 377 -2 0 42 c-1 112
-83 206 -219 248 -24 8 -45 19 -48 25 -2 7 32 155 75 331 44 175 137 555 207
844 70 289 131 529 136 534 10 12 157 -18 214 -43 22 -10 54 -34 72 -54 l31
-36 6 37 c3 20 24 192 46 380 26 221 46 354 56 374 8 16 14 32 12 34 -3 2 -23
-10 -45 -26 -34 -25 -42 -38 -47 -75 l-7 -45 -52 0 -52 0 -117 -110 -116 -110
-22 44 c-26 54 -105 130 -163 156 -40 19 -73 20 -747 20 l-705 0 -33 53 -32
52 28 3 c25 3 29 8 39 64 15 77 54 135 113 168 35 19 63 25 130 28 106 5 172
-19 225 -81 44 -51 71 -128 55 -156 -8 -17 -8 -21 3 -21 10 0 25 65 57 243 24
133 66 370 94 527 l51 285 313 3 c171 1 312 5 312 8 0 4 -17 34 -37 67 -48 79
-140 189 -213 255 -72 64 -225 162 -254 162 -15 0 -28 -14 -46 -47 -37 -68
-81 -88 -195 -88 -99 0 -165 22 -217 72 -32 31 -35 58 -13 129 8 27 15 50 15
52 0 6 -50 -1 -99 -14z"/>
<path d="M4448 2881 c2 -16 -1 -38 -7 -50 -11 -19 -9 -21 19 -21 28 0 31 3 24
23 -7 25 -33 77 -38 77 -1 0 -1 -13 2 -29z"/>
<path d="M90 2690 c-52 -12 -90 -63 -90 -120 0 -40 8 -55 65 -130 38 -49 72
-106 81 -135 15 -47 15 -56 0 -114 -9 -34 -16 -75 -16 -91 0 -44 57 -109 153
-173 95 -63 107 -80 132 -177 33 -133 45 -144 154 -134 85 8 107 3 157 -37 39
-31 54 -33 138 -17 15 2 25 -11 49 -69 17 -44 35 -73 44 -73 17 0 13 14 -27
109 l-28 65 24 31 c70 93 85 208 36 286 -30 46 -58 72 -136 126 -68 48 -74 67
-48 162 25 90 26 102 11 154 -22 82 -130 161 -235 173 -33 4 -70 1 -106 -10
-89 -26 -93 -24 -127 48 -22 44 -42 71 -69 89 -33 21 -106 49 -122 46 -3 -1
-21 -5 -40 -9z"/>
<path d="M1558 2302 c-72 -77 -195 -265 -265 -407 -68 -135 -153 -380 -153
-437 0 -38 17 -15 30 40 49 222 186 501 351 718 43 57 75 106 70 108 -4 3 -19
-7 -33 -22z"/>
<path d="M2870 1370 c0 -5 7 -10 16 -10 8 0 12 5 9 10 -3 6 -10 10 -16 10 -5
0 -9 -4 -9 -10z"/>
<path d="M5885 1370 c-3 -5 -1 -10 4 -10 6 0 11 5 11 10 0 6 -2 10 -4 10 -3 0
-8 -4 -11 -10z"/>
<path d="M1090 686 l0 -294 -32 -5 c-105 -15 -256 40 -341 125 -95 95 -136
213 -137 396 0 65 -6 74 -33 44 -15 -17 -17 -64 -17 -470 l0 -452 25 0 25 0 0
150 0 150 255 0 255 0 0 -150 0 -150 25 0 25 0 0 150 0 150 165 0 165 0 0
-150 0 -150 25 0 25 0 -2 468 -3 467 -22 3 c-22 3 -23 0 -23 -60 -1 -182 -41
-301 -132 -391 -50 -49 -124 -96 -175 -112 l-23 -6 0 290 0 291 -25 0 -25 0 0
-294z"/>
<path d="M2062 940 c0 -19 2 -27 5 -17 2 9 2 25 0 35 -3 9 -5 1 -5 -18z"/>
<path d="M6702 930 c0 -19 2 -27 5 -17 2 9 2 25 0 35 -3 9 -5 1 -5 -18z"/>
<path d="M2072 860 c0 -19 2 -27 5 -17 2 9 2 25 0 35 -3 9 -5 1 -5 -18z"/>
<path d="M6692 850 c0 -19 2 -27 5 -17 2 9 2 25 0 35 -3 9 -5 1 -5 -18z"/>
<path d="M2082 780 c0 -19 2 -27 5 -17 2 9 2 25 0 35 -3 9 -5 1 -5 -18z"/>
<path d="M6682 770 c0 -19 2 -27 5 -17 2 9 2 25 0 35 -3 9 -5 1 -5 -18z"/>
<path d="M2092 700 c0 -19 2 -27 5 -17 2 9 2 25 0 35 -3 9 -5 1 -5 -18z"/>
<path d="M6672 690 c0 -19 2 -27 5 -17 2 9 2 25 0 35 -3 9 -5 1 -5 -18z"/>
<path d="M2102 620 c0 -19 2 -27 5 -17 2 9 2 25 0 35 -3 9 -5 1 -5 -18z"/>
<path d="M6662 610 c0 -19 2 -27 5 -17 2 9 2 25 0 35 -3 9 -5 1 -5 -18z"/>
<path d="M2112 535 c0 -16 2 -22 5 -12 2 9 2 23 0 30 -3 6 -5 -1 -5 -18z"/>
<path d="M6653 525 c0 -22 2 -30 4 -17 2 12 2 30 0 40 -3 9 -5 -1 -4 -23z"/>
<path d="M2122 450 c0 -19 2 -27 5 -17 2 9 2 25 0 35 -3 9 -5 1 -5 -18z"/>
<path d="M6643 445 c0 -22 2 -30 4 -17 2 12 2 30 0 40 -3 9 -5 -1 -4 -23z"/>
<path d="M2131 384 c0 -11 3 -14 6 -6 3 7 2 16 -1 19 -3 4 -6 -2 -5 -13z"/>
<path d="M6631 384 c0 -11 3 -14 6 -6 3 7 2 16 -1 19 -3 4 -6 -2 -5 -13z"/>
<path d="M2340 281 c0 -49 3 -103 6 -120 l7 -32 111 3 111 3 5 118 5 117 -122
0 -123 0 0 -89z"/>
<path d="M6248 263 c2 -60 5 -114 7 -120 3 -9 35 -13 113 -13 l109 0 7 46 c3
26 6 80 6 120 l0 74 -123 0 -123 0 4 -107z"/>
</g>
</svg>
