<svg width="509" height="538" viewBox="0 0 509 538" fill="none" xmlns="http://www.w3.org/2000/svg">
<path d="M73.3545 537.593H50.8623L48.5176 483.042H75.6558L73.3545 537.593Z" fill="#0E0E0E"/>
<path d="M464.059 537.593H441.611L439.266 483.042H466.404L464.059 537.593Z" fill="#0E0E0E"/>
<path d="M444.476 388.378C442.001 396.953 439.309 405.771 436.356 414.782H63.107C63.107 414.782 14.9527 196.046 63.107 156.029C64.3228 155.012 65.7991 153.994 67.536 153.025C132.407 115.818 392.501 107.098 445.301 154.963C445.692 155.302 446.083 155.69 446.43 156.077C465.926 175.989 482.817 255.538 444.476 388.378Z" fill="#EA7B00"/>
<path d="M203.835 414.83H63.1938L76.915 261.497C101.448 273.366 166.71 336.056 203.835 414.83Z" fill="#982C20"/>
<path d="M444.477 388.378C442.002 396.953 439.309 405.77 436.357 414.782H300.795C324.113 366.529 380.647 293.471 435.532 259.85L444.477 388.378Z" fill="#982C20"/>
<path d="M491.241 259.365H439.483C430.799 259.365 423.417 266.535 422.288 276.176L405.788 415.411H103.359L86.8586 276.176C85.7296 266.535 78.348 259.365 69.6637 259.365H17.9055C7.09363 259.365 -1.06959 270.266 0.840946 282.087L29.5859 513.951H57.9834H478.649H479.561L508.306 282.087C510.216 270.266 502.053 259.365 491.241 259.365Z" fill="#EA7B00"/>
<path d="M402.792 339.35C427.151 348.458 422.375 405.964 402.792 414.83H107.397C85.3386 408.483 83.4716 332.374 115.299 338.091C310 378.931 319.423 313.771 402.792 339.35Z" fill="#F2B066"/>
<path d="M177.653 281.021C177.566 295.894 178.261 309.846 179.694 322.103H318.208L326.414 171.193C318.164 116.061 295.672 102.738 260.023 102.738C228.108 102.738 206.875 131.757 193.936 170.66C182.776 204.233 177.826 245.17 177.653 281.021Z" fill="#007880"/>
<path d="M177.652 283.928L227.761 280.585C199.928 270.411 197.713 222.788 226.024 193.139L193.935 170.66C182.776 204.233 177.826 248.077 177.652 283.928Z" fill="#005459"/>
<path d="M168.1 353.303H358.416V281.021H186.988L168.1 353.303Z" fill="#0E0E0E"/>
<path d="M382.733 330.388L331.626 537.642H291.766C304.401 449.469 301.579 392.109 313.433 318.906C323.811 258.735 395.108 274.674 382.733 330.388Z" fill="#0E0E0E"/>
<path d="M317.295 537.593C317.295 537.448 317.295 537.303 317.295 537.206C317.295 521.848 328.455 509.398 342.219 509.398C355.984 509.398 367.143 521.848 367.143 537.206C367.143 537.351 367.143 537.497 367.143 537.593H317.295Z" fill="#B15626"/>
<path d="M346.996 509.882L337.921 506.781C331.928 493.652 306.44 495.299 310.001 511.238C299.97 512.886 294.716 507.363 294.716 507.363L291.72 537.593H345.78L346.996 509.882Z" fill="#B15626"/>
<path d="M158.243 330.388L209.35 537.642H249.211C236.575 449.469 239.398 392.109 227.544 318.906C217.166 258.735 145.868 274.674 158.243 330.388Z" fill="#0E0E0E"/>
<path d="M223.679 537.593C223.679 537.448 223.679 537.303 223.679 537.206C223.679 521.848 212.519 509.398 198.755 509.398C184.99 509.398 173.831 521.848 173.831 537.206C173.831 537.351 173.831 537.497 173.831 537.593H223.679Z" fill="#B15626"/>
<path d="M193.979 509.882L203.054 506.781C209.046 493.652 234.534 495.299 230.973 511.238C241.004 512.886 246.258 507.363 246.258 507.363L249.254 537.593H195.194L193.979 509.882Z" fill="#B15626"/>
<path d="M238.66 107.583C257.374 120.227 260.023 157.822 250.427 172.791L197.062 217.12L251.382 248.319L242.568 280.536C242.568 280.536 185.859 275.401 158.113 243.62C131.496 213.196 196.454 123.618 238.66 107.583Z" fill="#007880"/>
<path d="M276.566 164.604C260.587 142.222 271.616 107.582 292.024 108.6C358.416 134.664 378.91 207.043 357.851 239.551C339.831 267.407 260.587 278.114 260.587 278.114V247.641L315.646 234.367C315.646 234.367 287.248 185.291 276.566 164.604Z" fill="#007880"/>
<path d="M218.425 270.411C217.383 260.189 222.767 247.447 236.532 244.637C260.587 239.744 269.271 254.472 271.573 265.033C272.18 267.795 269.923 270.653 267.882 270.411C265.798 270.169 264.365 268.861 264.017 266.778C263.583 264.258 262.411 261.158 259.805 259.511C262.28 264.937 261.238 270.411 254.465 270.411H218.425Z" fill="#F7A594"/>
<path d="M272.702 270.363L291.634 164.458H295.628C294.326 171.774 275.741 277.678 275.133 281.021C270.183 281.021 224.591 281.021 218.425 281.021L212.216 270.363H272.702Z" fill="#99C1FF"/>
<path d="M295.672 164.507H436.487L415.645 281.021H275.177L295.672 164.507Z" fill="white"/>
<path d="M254.595 115.189C254.595 127.252 286.987 135.245 297.539 122.552C299.145 120.663 300.231 118.289 300.665 115.382L306.744 84.8611L268.099 68.583L266.927 72.5557L254.595 115.189Z" fill="#F7A594"/>
<path d="M300.665 115.382L306.744 84.8612L270.183 73.8638C260.717 105.354 294.499 130.449 300.665 115.382Z" fill="#F4856D"/>
<path d="M265.233 56.9075C263.192 86.8959 284.425 113.299 302.272 114.656C320.118 116.012 344.651 93.7753 346.692 63.787C348.732 33.7986 332.145 7.92819 309.653 6.03878C287.161 4.14936 267.274 26.9192 265.233 56.9075Z" fill="#F7A594"/>
<path d="M295.063 8.31573C319.727 -9.07654 333.274 7.29833 345.562 24.6421C354.16 36.8506 360.282 45.571 371.007 47.4119C350.382 76.4314 309.132 57.295 296.149 28.2272C294.89 44.7959 277.391 58.5062 265.276 56.9074C261.325 38.4978 272.745 1.24255 295.063 8.31573Z" fill="#0E0E0E"/>
<path d="M271.702 69.0978C277.549 68.0391 281.52 61.8925 280.571 55.369C279.622 48.8455 274.113 44.4154 268.266 45.4741C262.419 46.5328 258.448 52.6795 259.397 59.203C260.346 65.7265 265.855 70.1566 271.702 69.0978Z" fill="#F7A594"/>
</svg>
