<svg width="175" height="267" viewBox="0 0 175 267" fill="none" xmlns="http://www.w3.org/2000/svg">
<path d="M103.504 231.837C79.0319 231.837 59.1753 211.981 59.1753 187.509V127.08H147.832V187.509C147.832 211.981 127.976 231.837 103.504 231.837Z" fill="#5896FA"/>
<path d="M59.1755 172.732H54.2739V266.506H59.1755V172.732Z" fill="#0E0E0E"/>
<path d="M152.734 172.732H147.833V266.506H152.734V172.732Z" fill="#0E0E0E"/>
<path d="M115.132 172.732H110.23V266.506H115.132V172.732Z" fill="#0E0E0E"/>
<path d="M148.047 231.837H54.2739V236.739H148.047V231.837Z" fill="#0E0E0E"/>
<path d="M172.519 27.2604C177.886 34.9526 167.117 41.6073 165.435 52.269C163.754 62.9308 175.99 68.9414 163.002 82.9305C155.024 91.5529 148.262 80.1041 141.786 93.3061C135.275 106.508 140.427 108.726 133.092 113.485C120.355 121.749 100.892 103.467 107.44 90.265C113.987 77.0988 127.225 78.2436 121.107 67.403C114.989 56.5624 112.699 51.8755 123.253 46.2942C136.348 39.3891 147.868 45.7217 148.906 35.6324C150.015 25.6146 165.471 17.0638 172.519 27.2604Z" fill="#FFCA59"/>
<path d="M116.634 126.472L114.416 126.043C124.72 73.9146 158.923 37.4213 159.245 37.0635L160.855 38.6019C160.533 38.9597 126.795 75.0236 116.634 126.472Z" fill="#0E0E0E"/>
<path d="M1.1084 8.01184C-4.43714 19.2818 11.1619 25.9007 15.5268 39.7109C19.8917 53.5211 3.82751 58.3869 23.7914 74.2722C36.099 84.0753 38.6749 77.9573 43.1829 99.8533C47.1543 119.137 61.8231 100.784 72.771 112.089C86.9032 126.687 108.978 94.6297 97.6723 78.5297C86.3666 62.394 73.1646 66.58 79.0679 50.9809C85.007 35.3818 77.923 23.6467 62.8249 18.3874C44.1131 11.8758 37.387 27.5823 33.9881 14.4518C30.5892 1.28563 8.44281 -6.90747 1.1084 8.01184Z" fill="#ED5A24"/>
<path d="M95.0607 128.046C71.2327 61.9647 19.3192 21.0708 18.8184 20.6773L20.6788 18.3159C21.2155 18.7095 73.7729 60.14 97.9229 127.044L95.0607 128.046Z" fill="#0E0E0E"/>
</svg>
